<svg xmlns="http://www.w3.org/2000/svg" width="19" height="19" viewBox="0 0 19 19" fill="none">
  <g clip-path="url(#clip0_1_621)">
    <path d="M11.8999 1.5818L12.1055 1.27135L12.311 0.968304L12.7662 0.280896C12.8249 0.199589 12.8029 0.0813246 12.7148 0.0295841C12.6341 -0.0295478 12.5166 -0.00737243 12.4652 0.0813255L11.9807 0.813083L11.7751 1.12353L11.5696 1.43397C10.9089 1.17527 10.1821 1.03483 9.40396 1.03483C8.63314 1.03483 7.89903 1.17527 7.23833 1.43397L7.03277 1.12353L6.82722 0.813083L6.34271 0.0813255C6.28398 1.90637e-05 6.17386 -0.0221563 6.09311 0.0295841C6.01236 0.0887161 5.99034 0.199589 6.04172 0.280896L6.49687 0.968304L6.70242 1.27135L6.90798 1.5818C5.36634 2.30616 4.31656 3.67359 4.31656 5.24798H14.4987C14.4914 3.67359 13.4489 2.30616 11.8999 1.5818ZM7.2163 3.77707C6.91532 3.77707 6.67306 3.53315 6.67306 3.2301C6.67306 2.92705 6.91532 2.68313 7.2163 2.68313C7.51729 2.68313 7.75955 2.92705 7.75955 3.2301C7.75955 3.53315 7.51729 3.77707 7.2163 3.77707ZM11.5769 3.77707C11.2759 3.77707 11.0337 3.53315 11.0337 3.2301C11.0337 2.92705 11.2759 2.68313 11.5769 2.68313C11.8779 2.68313 12.1202 2.92705 12.1202 3.2301C12.1275 3.53315 11.8853 3.77707 11.5769 3.77707Z" fill="#79DD7F"/>
    <path d="M4.38263 5.97241L4.30188 5.9798V6.88896V7.6355V14.0365C4.30188 14.6796 4.81576 15.197 5.45444 15.197H6.28398C6.25462 15.2931 6.23994 15.3966 6.23994 15.5V15.5592V15.9288V17.821C6.23994 18.4271 6.73179 18.9223 7.33376 18.9223C7.93574 18.9223 8.42759 18.4271 8.42759 17.821V15.9288V15.5592V15.5C8.42759 15.3966 8.41291 15.2931 8.38354 15.197H10.4097C10.3803 15.2931 10.3656 15.3966 10.3656 15.5V15.5592V15.9288V17.821C10.3656 18.4271 10.8575 18.9223 11.4595 18.9223C12.0614 18.9223 12.5533 18.4271 12.5533 17.821V15.9288V15.5592V15.5C12.5533 15.3966 12.5386 15.2931 12.5093 15.197H13.3388C13.9775 15.197 14.4914 14.6796 14.4914 14.0365V7.6355V6.88896V5.97241H14.4106H4.38263Z" fill="#79DD7F"/>
    <path d="M2.48863 5.97974C1.88666 5.97974 1.39481 6.47497 1.39481 7.08107V11.7821C1.39481 12.3882 1.88666 12.8834 2.48863 12.8834C3.0906 12.8834 3.58246 12.3882 3.58246 11.7821V7.08107C3.57512 6.46758 3.0906 5.97974 2.48863 5.97974Z" fill="#79DD7F"/>
    <path d="M16.312 5.97974C15.71 5.97974 15.2181 6.47497 15.2181 7.08107V11.7821C15.2181 12.3882 15.71 12.8834 16.312 12.8834C16.9139 12.8834 17.4058 12.3882 17.4058 11.7821V7.08107C17.3985 6.46758 16.9139 5.97974 16.312 5.97974Z" fill="#79DD7F"/>
  </g>
  <defs>
    <clipPath id="clip0_1_621">
      <path d="M0 5C0 2.23857 2.23858 0 5 0H13.7933C16.5547 0 18.7933 2.23858 18.7933 5V13.9222C18.7933 16.6836 16.5547 18.9222 13.7933 18.9222H5C2.23858 18.9222 0 16.6836 0 13.9222V5Z" fill="white"/>
    </clipPath>
  </defs>
</svg>