<svg width="21" height="21" viewBox="0 0 21 21" fill="none" xmlns="http://www.w3.org/2000/svg">
<path fill-rule="evenodd" clip-rule="evenodd" d="M13.3455 7.55043L13.482 12.5496C13.4877 12.7617 13.3785 12.9406 13.2176 13.0559C13.1111 13.2227 12.9383 13.3415 12.7263 13.3472L7.72703 13.4802C7.38201 13.4899 7.09616 13.2191 7.08277 12.8697C7.07348 12.5251 7.34559 12.2379 7.69061 12.2282L11.3359 12.1339L6.5313 7.58158C6.28177 7.34515 6.2702 6.94846 6.50749 6.69802C6.74521 6.44713 7.14152 6.43777 7.39105 6.6742L12.1956 11.2265L12.0934 7.58151C12.0845 7.23647 12.3571 6.94883 12.7012 6.93999C13.0508 6.93455 13.3366 7.20539 13.3455 7.55043ZM2.87797 3.25903C-0.920819 7.26829 -0.751583 13.596 3.25903 17.396C7.26965 21.1961 13.5972 21.0242 17.396 17.015C21.1948 13.0057 21.0256 6.67805 17.015 2.87797C13.0044 -0.922105 6.67676 -0.750219 2.87797 3.25903Z" fill="white"/>
</svg>
