<svg xmlns="http://www.w3.org/2000/svg" width="26" height="26" viewBox="0 0 26 26" fill="none">
  <g clip-path="url(#clip0_1_1115)">
    <path d="M13 25.9C10.66 25.9 8.49001 25.31 6.49001 24.13C4.55001 22.99 3.01001 21.45 1.87001 19.51C0.690006 17.51 0.100006 15.34 0.100006 13C0.100006 10.66 0.690006 8.48998 1.87001 6.48998C3.01001 4.54998 4.55001 3.00998 6.49001 1.86998C8.49001 0.689976 10.66 0.0999756 13 0.0999756C15.34 0.0999756 17.51 0.689976 19.51 1.86998C21.45 3.00998 22.99 4.54998 24.13 6.48998C25.31 8.48998 25.9 10.66 25.9 13C25.9 15.34 25.31 17.51 24.13 19.51C22.99 21.45 21.45 22.99 19.51 24.13C17.51 25.31 15.34 25.9 13 25.9ZM7.60001 20.8C8.38001 21.36 9.23501 21.785 10.165 22.075C11.095 22.365 12.04 22.51 13 22.51C14.72 22.51 16.32 22.07 17.8 21.19C19.22 20.35 20.35 19.22 21.19 17.8C22.07 16.32 22.51 14.72 22.51 13C22.51 12.04 22.365 11.095 22.075 10.165C21.785 9.23498 21.36 8.37998 20.8 7.59998L7.60001 20.8ZM13 3.48998C11.28 3.48998 9.68001 3.92998 8.20001 4.80998C6.78001 5.64998 5.65001 6.77998 4.81001 8.19998C3.93001 9.67998 3.49001 11.28 3.49001 13C3.49001 13.96 3.63501 14.905 3.92501 15.835C4.21501 16.765 4.64001 17.62 5.20001 18.4L18.4 5.19998C17.62 4.63998 16.765 4.21498 15.835 3.92498C14.905 3.63498 13.96 3.48998 13 3.48998Z" fill="white"/>
  </g>
  <defs>
    <clipPath id="clip0_1_1115">
      <path d="M0 12C0 5.37258 5.37258 0 12 0H21C23.7614 0 26 2.23858 26 5V21C26 23.7614 23.7614 26 21 26H0V12Z" fill="white"/>
    </clipPath>
  </defs>
</svg>