<svg width="23" height="24" viewBox="0 0 23 24" fill="none" xmlns="http://www.w3.org/2000/svg">
<path d="M18.5 16V19.5V16ZM18.5 23V19.5V23ZM18.5 19.5H22H18.5ZM18.5 19.5H15H18.5Z" fill="url(#paint0_linear_287_2)"/>
<path d="M18.5 16V19.5M18.5 19.5V23M18.5 19.5H22M18.5 19.5H15" stroke="url(#paint1_linear_287_2)" stroke-width="2" stroke-linecap="round" stroke-linejoin="round"/>
<path fill-rule="evenodd" clip-rule="evenodd" d="M3.16667 0C2.32681 0 1.52136 0.331874 0.927495 0.922614C0.33363 1.51335 0 2.31457 0 3.15V17.85C0 18.6854 0.33363 19.4866 0.927495 20.0774C1.52136 20.6681 2.32681 21 3.16667 21H11.4032C10.7548 19.8845 10.466 18.5981 10.5755 17.3142C10.6849 16.0304 11.1876 14.8107 12.0155 13.8198C12.8435 12.8289 13.957 12.1144 15.2058 11.7725C16.4547 11.4307 17.779 11.478 19 11.908V3.15C19 2.31457 18.6664 1.51335 18.0725 0.922614C17.4786 0.331874 16.6732 0 15.8333 0H3.16667ZM5.27778 10.5V3.15C5.27778 2.87152 5.38899 2.60445 5.58694 2.40754C5.7849 2.21062 6.05338 2.1 6.33333 2.1H10.5556C10.8355 2.1 11.104 2.21062 11.3019 2.40754C11.4999 2.60445 11.6111 2.87152 11.6111 3.15V10.5L9.19072 8.09235C8.99278 7.8955 8.72434 7.78492 8.44444 7.78492C8.16455 7.78492 7.89611 7.8955 7.69817 8.09235L5.27778 10.5Z" fill="url(#paint2_linear_287_2)"/>
<defs>
<linearGradient id="paint0_linear_287_2" x1="18.5" y1="16" x2="18.5" y2="23" gradientUnits="userSpaceOnUse">
<stop stop-color="#1C9679"/>
<stop offset="1" stop-color="#01E2AD"/>
</linearGradient>
<linearGradient id="paint1_linear_287_2" x1="18.5" y1="16" x2="18.5" y2="23" gradientUnits="userSpaceOnUse">
<stop stop-color="#1C9679"/>
<stop offset="1" stop-color="#01E2AD"/>
</linearGradient>
<linearGradient id="paint2_linear_287_2" x1="9.5" y1="0" x2="9.5" y2="21" gradientUnits="userSpaceOnUse">
<stop stop-color="#1C9679"/>
<stop offset="1" stop-color="#01E2AD"/>
</linearGradient>
</defs>
</svg>
