<svg xmlns="http://www.w3.org/2000/svg" width="18" height="15" viewBox="0 0 18 15" fill="none">
  <path d="M5.79103 6.34375H4.04005C3.89135 6.34375 3.771 6.44405 3.771 6.56796V8.02711C3.771 8.15087 3.89135 8.25132 4.04005 8.25132H5.79103C5.93972 8.25132 6.06008 8.15087 6.06008 8.02711V6.56796C6.06008 6.4442 5.93972 6.34375 5.79103 6.34375ZM5.52198 7.8029H4.3091V6.79217H5.52198V7.8029Z" fill="url(#paint0_linear_1_467)"/>
  <path d="M9.87486 6.34375H8.12388C7.97518 6.34375 7.85483 6.44405 7.85483 6.56796V8.02711C7.85483 8.15087 7.97518 8.25132 8.12388 8.25132H9.87486C10.0234 8.25132 10.1439 8.15087 10.1439 8.02711V6.56796C10.1439 6.4442 10.0234 6.34375 9.87486 6.34375ZM9.60581 7.8029H8.39293V6.79217H9.60581V7.8029Z" fill="url(#paint1_linear_1_467)"/>
  <path d="M13.8328 6.34375H12.0818C11.9333 6.34375 11.8127 6.44405 11.8127 6.56796V8.02711C11.8127 8.15087 11.9333 8.25132 12.0818 8.25132H13.8328C13.9813 8.25132 14.1018 8.15087 14.1018 8.02711V6.56796C14.1018 6.4442 13.9813 6.34375 13.8328 6.34375ZM13.5637 7.8029H12.3508V6.79217H13.5637V7.8029Z" fill="url(#paint2_linear_1_467)"/>
  <path d="M5.79103 9.66748H4.04005C3.89135 9.66748 3.771 9.76793 3.771 9.89169V11.3508C3.771 11.4746 3.89135 11.575 4.04005 11.575H5.79103C5.93972 11.575 6.06008 11.4746 6.06008 11.3508V9.89169C6.06008 9.76793 5.93972 9.66748 5.79103 9.66748ZM5.52198 11.1266H4.3091V10.1159H5.52198V11.1266Z" fill="url(#paint3_linear_1_467)"/>
  <path d="M9.87486 9.66748H8.12388C7.97518 9.66748 7.85483 9.76793 7.85483 9.89169V11.3508C7.85483 11.4746 7.97518 11.575 8.12388 11.575H9.87486C10.0234 11.575 10.1439 11.4746 10.1439 11.3508V9.89169C10.1439 9.76793 10.0234 9.66748 9.87486 9.66748ZM9.60581 11.1266H8.39293V10.1159H9.60581V11.1266Z" fill="url(#paint4_linear_1_467)"/>
  <path d="M13.8328 9.66748H12.0818C11.9333 9.66748 11.8127 9.76793 11.8127 9.89169V11.3508C11.8127 11.4746 11.9333 11.575 12.0818 11.575H13.8328C13.9813 11.575 14.1018 11.4746 14.1018 11.3508V9.89169C14.1018 9.76793 13.9813 9.66748 13.8328 9.66748ZM13.5637 11.1266H12.3508V10.1159H13.5637V11.1266Z" fill="url(#paint5_linear_1_467)"/>
  <path d="M15.9636 2.00206H14.1867C14.1843 2.00206 14.1823 2.00251 14.18 2.00266V1.70401C14.18 1.21553 13.7033 0.818237 13.1171 0.818237C12.5309 0.818237 12.0542 1.21568 12.0542 1.70401V2.00206H10.0519V1.70401C10.0519 1.21553 9.57513 0.818237 8.98896 0.818237C8.40279 0.818237 7.92603 1.21568 7.92603 1.70401V2.00206H5.92358V1.70401C5.92358 1.21553 5.44683 0.818237 4.86066 0.818237C4.27449 0.818237 3.79773 1.21568 3.79773 1.70401V2.00221C3.79683 2.00221 3.79593 2.00206 3.79504 2.00206H2.01841C1.86971 2.00206 1.74936 2.10235 1.74936 2.22627V13.8471C1.74936 13.9709 1.86971 14.0714 2.01841 14.0714H15.9636C16.1122 14.0714 16.2327 13.9709 16.2327 13.8471V2.22627C16.2327 2.10235 16.1122 2.00206 15.9636 2.00206ZM12.5923 1.70401C12.5923 1.46276 12.8276 1.26665 13.1171 1.26665C13.4066 1.26665 13.6419 1.46276 13.6419 1.70401V2.94119C13.6419 3.18229 13.4066 3.37855 13.1171 3.37855C12.8276 3.37855 12.5923 3.18244 12.5923 2.94119V1.70401ZM8.98896 1.26665C9.27828 1.26665 9.51379 1.46276 9.51379 1.70401V2.94119C9.51379 3.18229 9.27846 3.37855 8.98896 3.37855C8.69946 3.37855 8.46413 3.18244 8.46413 2.94119V2.24719C8.46485 2.24017 8.46665 2.23344 8.46665 2.22612C8.46665 2.21879 8.46485 2.21207 8.46413 2.20504V1.70401C8.46413 1.46276 8.69946 1.26665 8.98896 1.26665ZM4.33583 1.70401C4.33583 1.46276 4.57116 1.26665 4.86066 1.26665C5.14997 1.26665 5.38548 1.46276 5.38548 1.70401V2.94119C5.38548 3.18229 5.15015 3.37855 4.86066 3.37855C4.57116 3.37855 4.33583 3.18244 4.33583 2.94119V1.70401ZM15.6946 13.6229H2.28746V2.45048H3.79504C3.79593 2.45048 3.79683 2.45033 3.79773 2.45033V2.94134C3.79773 3.42982 4.27466 3.82712 4.86066 3.82712C5.44665 3.82712 5.92358 3.42982 5.92358 2.94134V2.45062H7.92603V2.94134C7.92603 3.42982 8.40297 3.82712 8.98896 3.82712C9.57495 3.82712 10.0519 3.42982 10.0519 2.94134V2.45062H12.0542V2.94134C12.0542 3.42982 12.5309 3.82712 13.1171 3.82712C13.7033 3.82712 14.18 3.42982 14.18 2.94134V2.44988C14.1823 2.44988 14.1843 2.45048 14.1867 2.45048H15.6946V13.6229Z" fill="url(#paint6_linear_1_467)"/>
  <defs>
    <linearGradient id="paint0_linear_1_467" x1="4.91554" y1="6.34375" x2="4.91554" y2="8.25132" gradientUnits="userSpaceOnUse">
      <stop stop-color="#DBEEE8"/>
      <stop offset="1" stop-color="#6CFFF6"/>
    </linearGradient>
    <linearGradient id="paint1_linear_1_467" x1="8.99937" y1="6.34375" x2="8.99937" y2="8.25132" gradientUnits="userSpaceOnUse">
      <stop stop-color="#DBEEE8"/>
      <stop offset="1" stop-color="#6CFFF6"/>
    </linearGradient>
    <linearGradient id="paint2_linear_1_467" x1="12.9573" y1="6.34375" x2="12.9573" y2="8.25132" gradientUnits="userSpaceOnUse">
      <stop stop-color="#DBEEE8"/>
      <stop offset="1" stop-color="#6CFFF6"/>
    </linearGradient>
    <linearGradient id="paint3_linear_1_467" x1="4.91554" y1="9.66748" x2="4.91554" y2="11.575" gradientUnits="userSpaceOnUse">
      <stop stop-color="#DBEEE8"/>
      <stop offset="1" stop-color="#6CFFF6"/>
    </linearGradient>
    <linearGradient id="paint4_linear_1_467" x1="8.99937" y1="9.66748" x2="8.99937" y2="11.575" gradientUnits="userSpaceOnUse">
      <stop stop-color="#DBEEE8"/>
      <stop offset="1" stop-color="#6CFFF6"/>
    </linearGradient>
    <linearGradient id="paint5_linear_1_467" x1="12.9573" y1="9.66748" x2="12.9573" y2="11.575" gradientUnits="userSpaceOnUse">
      <stop stop-color="#DBEEE8"/>
      <stop offset="1" stop-color="#6CFFF6"/>
    </linearGradient>
    <linearGradient id="paint6_linear_1_467" x1="8.99103" y1="0.818237" x2="8.99103" y2="14.0714" gradientUnits="userSpaceOnUse">
      <stop stop-color="#DBEEE8"/>
      <stop offset="1" stop-color="#6CFFF6"/>
    </linearGradient>
  </defs>
</svg>