<svg width="17" height="17" viewBox="0 0 17 17" fill="none" xmlns="http://www.w3.org/2000/svg">
<path d="M15.8333 7.41417V4.935C15.8333 4.49297 15.6577 4.06905 15.3452 3.75649C15.0326 3.44393 14.6087 3.26833 14.1667 3.26833H9.16667V2.175C9.42083 1.94667 9.58333 1.61833 9.58333 1.25C9.58333 0.918479 9.45164 0.600537 9.21722 0.366117C8.9828 0.131696 8.66485 0 8.33333 0C8.00181 0 7.68387 0.131696 7.44945 0.366117C7.21503 0.600537 7.08333 0.918479 7.08333 1.25C7.08333 1.61833 7.24583 1.94667 7.5 2.175V3.26833H2.5C2.05797 3.26833 1.63405 3.44393 1.32149 3.75649C1.00893 4.06905 0.833333 4.49297 0.833333 4.935V7.43333L0.773333 7.4375C0.56324 7.45247 0.366629 7.54652 0.223125 7.70069C0.07962 7.85487 -0.000110828 8.05771 1.15627e-07 8.26833V9.935C1.15627e-07 10.156 0.0877975 10.368 0.244078 10.5243C0.400358 10.6805 0.61232 10.7683 0.833333 10.7683V14.935C0.833333 15.377 1.00893 15.8009 1.32149 16.1135C1.63405 16.4261 2.05797 16.6017 2.5 16.6017H14.1667C14.6087 16.6017 15.0326 16.4261 15.3452 16.1135C15.6577 15.8009 15.8333 15.377 15.8333 14.935V10.7683C16.0543 10.7683 16.2663 10.6805 16.4226 10.5243C16.5789 10.368 16.6667 10.156 16.6667 9.935V8.32C16.6763 8.19067 16.6558 8.06086 16.6067 7.94083C16.4383 7.53417 16.0775 7.43667 15.8333 7.41417ZM4.16667 8.26833C4.16667 7.34833 4.72667 6.60167 5.41667 6.60167C6.10667 6.60167 6.66667 7.34833 6.66667 8.26833C6.66667 9.18833 6.10667 9.935 5.41667 9.935C4.72667 9.935 4.16667 9.18833 4.16667 8.26833ZM11.665 13.2683C10.8308 13.2658 5 13.2683 5 13.2683V11.6017C5 11.6017 10.8342 11.6 11.6683 11.6017L11.665 13.2683ZM11.25 9.935C10.56 9.935 10 9.18833 10 8.26833C10 7.34833 10.56 6.60167 11.25 6.60167C11.94 6.60167 12.5 7.34833 12.5 8.26833C12.5 9.18833 11.94 9.935 11.25 9.935Z" fill="url(#paint0_linear_289_23)"/>
<defs>
<linearGradient id="paint0_linear_289_23" x1="8.3345" y1="0" x2="8.3345" y2="16.6017" gradientUnits="userSpaceOnUse">
<stop stop-color="#1C9679"/>
<stop offset="1" stop-color="#01E2AD"/>
</linearGradient>
</defs>
</svg>
