<svg width="19" height="19" viewBox="0 0 19 19" fill="none" xmlns="http://www.w3.org/2000/svg">
<path d="M14.0625 16.8851H1.125V2.82262H9.02813L10.1655 1.72688L10.1363 1.69763H1.125C0.503438 1.69763 0 2.20162 0 2.82262V16.8851C0 17.5067 0.503438 18.0101 1.125 18.0101H14.0625C14.6841 18.0101 15.1875 17.5067 15.1875 16.8851V8.64675L14.0625 9.72056V16.8846V16.8851ZM17.1366 0.7335C16.6292 0.246937 16.0689 0 15.471 0C14.5356 0 13.8533 0.604125 13.6676 0.789187C13.4044 1.04906 5.94788 8.49488 5.94788 8.49488C5.88938 8.5545 5.84663 8.62706 5.82469 8.70862C5.62275 9.4545 4.61025 12.7688 4.60069 12.8019C4.54838 12.9718 4.59506 13.1569 4.7205 13.2806C4.80994 13.3706 4.93031 13.4184 5.05294 13.4184C5.10131 13.4184 5.14969 13.4117 5.1975 13.3965C5.23181 13.3852 8.65181 12.2794 9.21431 12.1112C9.28856 12.0893 9.35606 12.0493 9.41175 11.9948C9.76669 11.6443 16.6208 4.89712 17.1754 4.32394C17.7491 3.73219 18.0338 3.11681 18.0231 2.49413C18.0124 1.87875 17.7137 1.28644 17.1371 0.734062L17.1366 0.7335ZM16.3665 3.54037C16.0538 3.86325 13.6024 6.28538 9.081 10.7393L8.73506 11.0807C8.217 11.241 6.97556 11.6398 6.03731 11.9424C6.33938 10.9451 6.70163 9.73969 6.86363 9.16988C7.82944 8.20519 14.2183 1.82644 14.4608 1.58738C14.508 1.54013 14.9394 1.12556 15.4704 1.12556C15.7719 1.12556 16.0628 1.26281 16.3575 1.54631C16.7102 1.88494 16.8919 2.2095 16.8969 2.51381C16.9026 2.82656 16.7237 3.1725 16.3665 3.5415V3.54037Z" fill="url(#paint0_linear_289_21)"/>
<defs>
<linearGradient id="paint0_linear_289_21" x1="9.01168" y1="0" x2="9.01168" y2="18.0101" gradientUnits="userSpaceOnUse">
<stop stop-color="#1C9679"/>
<stop offset="1" stop-color="#01E2AD"/>
</linearGradient>
</defs>
</svg>
