<svg xmlns="http://www.w3.org/2000/svg" width="35" height="30" viewBox="0 0 35 30" fill="none">
  <path d="M32.7175 10.26C31.8803 8.26391 30.6666 6.4504 29.1436 4.92C27.6243 3.38591 25.8239 2.16332 23.8423 1.32C21.7836 0.4425 19.602 0 17.3496 0C15.0973 0 12.9157 0.4425 10.857 1.32C8.87538 2.16332 7.07501 3.38591 5.55569 4.92C4.03271 6.4504 2.81897 8.26391 1.98177 10.26C1.11062 12.3338 0.671326 14.5312 0.671326 16.8C0.671326 21.7762 2.84174 26.4638 6.62415 29.6663L6.68743 29.7188C6.90336 29.8988 7.17513 30 7.45434 30H27.2487C27.5279 30 27.7997 29.8988 28.0156 29.7188L28.0789 29.6663C31.8576 26.4638 34.028 21.7762 34.028 16.8C34.028 14.5312 33.5849 12.3338 32.7175 10.26ZM16.2328 4.5C16.2328 4.335 16.3668 4.2 16.5306 4.2H18.1687C18.3325 4.2 18.4665 4.335 18.4665 4.5V7.5C18.4665 7.665 18.3325 7.8 18.1687 7.8H16.5306C16.3668 7.8 16.2328 7.665 16.2328 7.5V4.5ZM8.34038 17.625C8.34038 17.79 8.20635 17.925 8.04255 17.925H5.06428C4.90047 17.925 4.76645 17.79 4.76645 17.625V15.975C4.76645 15.81 4.90047 15.675 5.06428 15.675H8.04255C8.20635 15.675 8.34038 15.81 8.34038 15.975V17.625ZM11.717 9.95625L10.5592 11.1225C10.5032 11.1783 10.4276 11.2097 10.3488 11.2097C10.2701 11.2097 10.1945 11.1783 10.1385 11.1225L8.03138 9C7.97595 8.94362 7.94486 8.86747 7.94486 8.78813C7.94486 8.70878 7.97595 8.63263 8.03138 8.57625L9.18918 7.41C9.30459 7.29375 9.49446 7.29375 9.60986 7.41L11.717 9.5325C11.8324 9.64875 11.8324 9.84 11.717 9.95625ZM22.5542 13.0913L19.4084 16.26C19.5945 16.9612 19.4158 17.7375 18.8686 18.2887C18.6751 18.484 18.4453 18.6389 18.1923 18.7446C17.9394 18.8503 17.6682 18.9047 17.3943 18.9047C17.1205 18.9047 16.8493 18.8503 16.5963 18.7446C16.3433 18.6389 16.1135 18.484 15.9201 18.2887C15.7262 18.0939 15.5725 17.8624 15.4675 17.6076C15.3626 17.3528 15.3086 17.0796 15.3086 16.8037C15.3086 16.5279 15.3626 16.2547 15.4675 15.9999C15.5725 15.7451 15.7262 15.5136 15.9201 15.3188C16.1786 15.0576 16.5009 14.8698 16.8546 14.7743C17.2082 14.6788 17.5806 14.6791 17.9341 14.775L21.0799 11.6063C21.1953 11.49 21.3852 11.49 21.5006 11.6063L22.5542 12.6675C22.6696 12.7837 22.6696 12.9713 22.5542 13.0913ZM24.155 11.1263L22.9972 9.96C22.9418 9.90362 22.9107 9.82747 22.9107 9.74813C22.9107 9.66878 22.9418 9.59263 22.9972 9.53625L25.1043 7.41375C25.2197 7.2975 25.4096 7.2975 25.525 7.41375L26.6828 8.58C26.7982 8.69625 26.7982 8.8875 26.6828 9.00375L24.5757 11.1263C24.5197 11.1821 24.4441 11.2134 24.3653 11.2134C24.2866 11.2134 24.211 11.1821 24.155 11.1263ZM29.7839 17.625C29.7839 17.79 29.6499 17.925 29.4861 17.925H26.5078C26.344 17.925 26.21 17.79 26.21 17.625V15.975C26.21 15.81 26.344 15.675 26.5078 15.675H29.4861C29.6499 15.675 29.7839 15.81 29.7839 15.975V17.625Z" fill="#1C9679"/>
</svg>