<svg xmlns="http://www.w3.org/2000/svg" width="30" height="30" viewBox="0 0 30 30" fill="none">
  <path d="M28.8214 10.26C28.0685 8.26391 26.9769 6.4504 25.6071 4.92C24.2407 3.38591 22.6215 2.16332 20.8393 1.32C18.9877 0.4425 17.0257 0 15 0C12.9743 0 11.0123 0.4425 9.16072 1.32C7.37849 2.16332 5.75928 3.38591 4.39286 4.92C3.02313 6.4504 1.93153 8.26391 1.17857 10.26C0.395089 12.3338 0 14.5312 0 16.8C0 21.7762 1.95201 26.4638 5.35379 29.6663L5.41071 29.7188C5.60491 29.8988 5.84933 30 6.10045 30H23.9029C24.154 30 24.3984 29.8988 24.5926 29.7188L24.6496 29.6663C28.048 26.4638 30 21.7762 30 16.8C30 14.5312 29.6016 12.3338 28.8214 10.26ZM13.9955 4.5C13.9955 4.335 14.1161 4.2 14.2634 4.2H15.7366C15.8839 4.2 16.0045 4.335 16.0045 4.5V7.5C16.0045 7.665 15.8839 7.8 15.7366 7.8H14.2634C14.1161 7.8 13.9955 7.665 13.9955 7.5V4.5ZM6.89732 17.625C6.89732 17.79 6.77679 17.925 6.62946 17.925H3.95089C3.80357 17.925 3.68304 17.79 3.68304 17.625V15.975C3.68304 15.81 3.80357 15.675 3.95089 15.675H6.62946C6.77679 15.675 6.89732 15.81 6.89732 15.975V17.625ZM9.93415 9.95625L8.89286 11.1225C8.84251 11.1783 8.77453 11.2097 8.70368 11.2097C8.63284 11.2097 8.56485 11.1783 8.51451 11.1225L6.61942 9C6.56957 8.94362 6.54161 8.86747 6.54161 8.78813C6.54161 8.70878 6.56957 8.63263 6.61942 8.57625L7.66071 7.41C7.76451 7.29375 7.93527 7.29375 8.03906 7.41L9.93415 9.5325C10.0379 9.64875 10.0379 9.84 9.93415 9.95625ZM19.6808 13.0913L16.8516 16.26C17.019 16.9612 16.8583 17.7375 16.3661 18.2887C16.1921 18.484 15.9854 18.6389 15.7579 18.7446C15.5304 18.8503 15.2865 18.9047 15.0402 18.9047C14.7939 18.9047 14.55 18.8503 14.3225 18.7446C14.095 18.6389 13.8883 18.484 13.7143 18.2887C13.54 18.0939 13.4017 17.8624 13.3073 17.6076C13.2129 17.3528 13.1643 17.0796 13.1643 16.8037C13.1643 16.5279 13.2129 16.2547 13.3073 15.9999C13.4017 15.7451 13.54 15.5136 13.7143 15.3188C13.9468 15.0576 14.2367 14.8698 14.5547 14.7743C14.8728 14.6788 15.2077 14.6791 15.5257 14.775L18.3549 11.6063C18.4587 11.49 18.6295 11.49 18.7333 11.6063L19.6808 12.6675C19.7846 12.7837 19.7846 12.9713 19.6808 13.0913ZM21.1205 11.1263L20.0792 9.96C20.0294 9.90362 20.0014 9.82747 20.0014 9.74813C20.0014 9.66878 20.0294 9.59263 20.0792 9.53625L21.9743 7.41375C22.0781 7.2975 22.2489 7.2975 22.3527 7.41375L23.394 8.58C23.4978 8.69625 23.4978 8.8875 23.394 9.00375L21.4989 11.1263C21.4485 11.1821 21.3806 11.2134 21.3097 11.2134C21.2389 11.2134 21.1709 11.1821 21.1205 11.1263ZM26.183 17.625C26.183 17.79 26.0625 17.925 25.9152 17.925H23.2366C23.0893 17.925 22.9688 17.79 22.9688 17.625V15.975C22.9688 15.81 23.0893 15.675 23.2366 15.675H25.9152C26.0625 15.675 26.183 15.81 26.183 15.975V17.625Z" fill="white"/>
</svg>