<svg xmlns="http://www.w3.org/2000/svg" width="24" height="24" viewBox="0 0 24 24" fill="none">
  <g clip-path="url(#clip0_1_1417)">
    <path d="M4.63473 2.94942H5.7043H17.6638H18.636C18.9001 2.94942 19.1141 2.73538 19.1141 2.47133C19.1141 2.20728 18.9001 1.99324 18.636 1.99324H18.095C17.8716 0.858598 16.8696 0 15.6705 0H7.6975C6.49836 0 5.49638 0.858598 5.27302 1.99324H4.63473C4.37068 1.99324 4.15664 2.20728 4.15664 2.47133C4.15664 2.73538 4.37068 2.94942 4.63473 2.94942ZM7.6975 0.956175H15.6705C16.3389 0.956175 16.9077 1.39138 17.1084 1.99324H6.25965C6.4603 1.39138 7.02904 0.956175 7.6975 0.956175Z" fill="url(#paint0_linear_1_1417)"/>
    <path d="M19.1141 19.3353V3.97841C19.1141 3.71436 18.9001 3.50032 18.636 3.50032H4.63473C4.50406 3.50032 4.37909 3.55382 4.28888 3.64834C4.19866 3.7429 4.15109 3.87022 4.15716 4.00073C4.16252 4.11538 4.69798 15.5127 5.15622 19.6249C5.26609 20.6108 5.67332 21.5166 6.30292 22.1755C6.98754 22.892 7.86904 23.2708 8.85208 23.2708H15.1787C15.6896 23.7361 16.3621 24 17.056 24C18.5929 24 19.8434 22.7496 19.8434 21.2127C19.8434 20.5187 19.5794 19.8463 19.1141 19.3353ZM14.2688 21.2127C14.2688 21.5965 14.3476 21.9701 14.4961 22.3147L14.4953 22.3146H8.85208C7.41897 22.3146 6.28991 21.165 6.10652 19.519C5.70655 15.9296 5.24539 6.70757 5.13629 4.4565H18.158V18.6519L18.1581 18.6527C17.8136 18.5041 17.4399 18.4253 17.0561 18.4253C15.5192 18.4253 14.2688 19.6757 14.2688 21.2127ZM17.056 23.0438C16.5455 23.0438 16.0715 22.8384 15.7212 22.4654C15.4012 22.1246 15.2248 21.6796 15.2248 21.2127C15.2248 20.2029 16.0463 19.3815 17.056 19.3815C17.523 19.3815 17.9679 19.5578 18.3088 19.8779C18.6818 20.2281 18.8872 20.7022 18.8872 21.2127C18.8872 22.2224 18.0657 23.0438 17.056 23.0438Z" fill="url(#paint1_linear_1_1417)"/>
    <path d="M14.7416 11.468L15.1713 11.5629C15.4293 11.6198 15.6843 11.4569 15.7412 11.1991C15.7981 10.9412 15.6352 10.6861 15.3774 10.6292L13.8212 10.2857C13.5632 10.2289 13.3082 10.3917 13.2513 10.6495L12.9078 12.2057C12.8509 12.4636 13.0138 12.7187 13.2716 12.7756C13.3063 12.7832 13.341 12.7869 13.3751 12.7869C13.5946 12.7869 13.7923 12.6349 13.8415 12.4118L13.9361 11.9832L15.4694 14.4144H14.4099C14.1459 14.4144 13.9319 14.6285 13.9319 14.8925C13.9319 15.1566 14.1459 15.3706 14.4099 15.3706H16.3362C16.5103 15.3706 16.6707 15.276 16.7548 15.1235C16.8389 14.971 16.8334 14.7849 16.7405 14.6375L14.7416 11.468Z" fill="url(#paint2_linear_1_1417)"/>
    <path d="M12.4715 9.67898L12.6035 9.8989C12.6931 10.0483 12.8515 10.1311 13.0139 10.1311C13.0976 10.1311 13.1824 10.1091 13.2594 10.0629C13.4858 9.9271 13.5592 9.63342 13.4234 9.40699L13.2915 9.18707C13.1556 8.96065 12.8619 8.88726 12.6355 9.02304C12.4092 9.15891 12.3357 9.45255 12.4715 9.67898Z" fill="url(#paint3_linear_1_1417)"/>
    <path d="M12.1199 13.4171C11.9332 13.2305 11.6304 13.2305 11.4437 13.4171C11.257 13.6038 11.257 13.9066 11.4437 14.0933L11.7649 14.4145H8.71009L9.13721 13.7373C9.27805 13.514 9.21117 13.2187 8.98786 13.0779C8.76459 12.9371 8.46932 13.0039 8.32843 13.2273L7.439 14.6376C7.3461 14.7849 7.34065 14.9711 7.42475 15.1236C7.50884 15.2761 7.66924 15.3708 7.84336 15.3708H11.744L11.4437 15.671C11.2571 15.8577 11.2571 16.1604 11.4437 16.3472C11.5371 16.4405 11.6595 16.4872 11.7818 16.4872C11.9041 16.4872 12.0265 16.4405 12.1199 16.3472L13.2468 15.2203C13.4334 15.0336 13.4334 14.7308 13.2468 14.5441L12.1199 13.4171Z" fill="url(#paint4_linear_1_1417)"/>
    <path d="M9.05474 12.3208C9.10398 12.5439 9.30172 12.696 9.52116 12.696C9.55525 12.696 9.58996 12.6923 9.62467 12.6846L11.1808 12.3411C11.4387 12.2842 11.6016 12.029 11.5447 11.7712C11.4878 11.5134 11.2328 11.3505 10.9748 11.4074L10.5471 11.5018L12.4942 8.41439C12.635 8.19107 12.5682 7.89581 12.3448 7.75496C12.1216 7.61416 11.8263 7.68095 11.6854 7.90432L9.74003 10.989L9.64503 10.5586C9.58814 10.3007 9.33308 10.1378 9.07515 10.1947C8.81732 10.2516 8.65444 10.5068 8.71133 10.7646L9.05474 12.3208Z" fill="url(#paint5_linear_1_1417)"/>
    <path d="M17.1121 20.4588L16.2994 21.2715C16.1127 21.4582 16.1127 21.7609 16.2994 21.9477C16.3928 22.041 16.5151 22.0877 16.6375 22.0877C16.7598 22.0877 16.8822 22.041 16.9755 21.9477L17.7883 21.1349C17.975 20.9482 17.975 20.6455 17.7883 20.4588C17.6016 20.272 17.2988 20.272 17.1121 20.4588Z" fill="url(#paint6_linear_1_1417)"/>
  </g>
  <defs>
    <linearGradient id="paint0_linear_1_1417" x1="11.6354" y1="0" x2="11.6354" y2="2.94942" gradientUnits="userSpaceOnUse">
      <stop stop-color="#34836E"/>
      <stop offset="1" stop-color="#1C9679"/>
    </linearGradient>
    <linearGradient id="paint1_linear_1_1417" x1="12" y1="3.50032" x2="12" y2="24" gradientUnits="userSpaceOnUse">
      <stop stop-color="#34836E"/>
      <stop offset="1" stop-color="#1C9679"/>
    </linearGradient>
    <linearGradient id="paint2_linear_1_1417" x1="14.8553" y1="10.2744" x2="14.8553" y2="15.3707" gradientUnits="userSpaceOnUse">
      <stop stop-color="#34836E"/>
      <stop offset="1" stop-color="#1C9679"/>
    </linearGradient>
    <linearGradient id="paint3_linear_1_1417" x1="12.9475" y1="8.95488" x2="12.9475" y2="10.1311" gradientUnits="userSpaceOnUse">
      <stop stop-color="#34836E"/>
      <stop offset="1" stop-color="#1C9679"/>
    </linearGradient>
    <linearGradient id="paint4_linear_1_1417" x1="10.376" y1="13.0042" x2="10.376" y2="16.4872" gradientUnits="userSpaceOnUse">
      <stop stop-color="#34836E"/>
      <stop offset="1" stop-color="#1C9679"/>
    </linearGradient>
    <linearGradient id="paint5_linear_1_1417" x1="10.634" y1="7.68121" x2="10.634" y2="12.696" gradientUnits="userSpaceOnUse">
      <stop stop-color="#34836E"/>
      <stop offset="1" stop-color="#1C9679"/>
    </linearGradient>
    <linearGradient id="paint6_linear_1_1417" x1="17.0438" y1="20.3187" x2="17.0438" y2="22.0877" gradientUnits="userSpaceOnUse">
      <stop stop-color="#34836E"/>
      <stop offset="1" stop-color="#1C9679"/>
    </linearGradient>
    <clipPath id="clip0_1_1417">
      <rect width="24" height="24" fill="white"/>
    </clipPath>
  </defs>
</svg>