<svg xmlns="http://www.w3.org/2000/svg" width="30" height="30" viewBox="0 0 30 30" fill="none">
  <path d="M30 27.2293V22.8586V12.4928V11.1688V10.4761C30 9.18267 28.9742 8.12219 27.7211 8.12219H19.9324C18.6794 8.12219 17.6536 9.18267 17.6536 10.4761V11.1688V27.2293V27.6461C17.6536 28.9395 18.6794 30 19.9324 30H27.7211C28.9742 30 30 28.9395 30 27.6461V27.2293ZM24.8096 29.0131H22.6106C22.285 29.0131 22.0209 28.7372 22.0209 28.4001C22.0209 28.0629 22.285 27.7871 22.6106 27.7871H24.8096C25.1351 27.7871 25.3993 28.0629 25.3993 28.4001C25.3993 28.7372 25.1351 29.0131 24.8096 29.0131ZM27.93 26.8063C27.9177 26.8063 27.8993 26.8124 27.887 26.8124H19.7666C19.7543 26.8124 19.7359 26.8063 19.7236 26.8063V11.3343C19.7359 11.3343 19.7543 11.3282 19.7666 11.3282H27.887C27.8993 11.3282 27.9115 11.3343 27.9238 11.3343V26.8063H27.93ZM6.46192 30H10.3194H16.2715C15.8722 29.3073 15.6388 28.5043 15.6388 27.6461V26.2423H13.4459H2.56757V3.25501H19.2629V6.06866C19.484 6.03801 19.7052 6.01349 19.9324 6.01349H21.7998V3.14467V2.75848V2.4152C21.7998 1.41602 21.2101 0.557826 20.3686 0.190029C20.086 0.0674295 19.7789 0 19.4533 0H10.3256L2.34644 0C2.02088 0 1.71376 0.0674295 1.4312 0.190029C0.589681 0.557826 0 1.41602 0 2.4152V2.85043V24.6363V27.5848C0 28.9211 1.05037 30 2.34029 30H6.46192ZM9.7973 27.5603H11.9963C12.3219 27.5603 12.586 27.8361 12.586 28.1733C12.586 28.5104 12.3219 28.7863 11.9963 28.7863H9.7973C9.47174 28.7863 9.20762 28.5104 9.20762 28.1733C9.20762 27.8361 9.47174 27.5603 9.7973 27.5603Z" fill="#1C9679"/>
</svg>