<svg xmlns="http://www.w3.org/2000/svg" width="25" height="26" viewBox="0 0 25 26" fill="none">
  <path fill-rule="evenodd" clip-rule="evenodd" d="M8.03576 24.1789C6.32937 24.1789 5.20837 22.6234 5.20837 21.0539V4.38727C5.20837 2.81781 6.32937 1.26227 8.03576 1.26227H16.9643C18.6707 1.26227 19.7917 2.81781 19.7917 4.38727V21.0539C19.7917 22.6234 18.6707 24.1789 16.9643 24.1789H8.03576ZM12.5 22.0956C13.363 22.0956 14.0625 21.396 14.0625 20.5331C14.0625 19.6702 13.363 18.9706 12.5 18.9706C11.6371 18.9706 10.9375 19.6702 10.9375 20.5331C10.9375 21.396 11.6371 22.0956 12.5 22.0956Z" fill="url(#paint0_linear_1_1996)"/>
  <defs>
    <linearGradient id="paint0_linear_1_1996" x1="12.5" y1="1.26227" x2="12.5" y2="24.1789" gradientUnits="userSpaceOnUse">
      <stop stop-color="#34836E"/>
      <stop offset="1" stop-color="#0DC997"/>
    </linearGradient>
  </defs>
</svg>