<svg width="17" height="7" viewBox="0 0 17 7" fill="none" xmlns="http://www.w3.org/2000/svg">
<path d="M15 0H1.66667C1.22464 0 0.800716 0.175595 0.488155 0.488156C0.175595 0.800716 0 1.22464 0 1.66667V5C0 5.44203 0.175595 5.86595 0.488155 6.17851C0.800716 6.49107 1.22464 6.66667 1.66667 6.66667H15C15.442 6.66667 15.866 6.49107 16.1785 6.17851C16.4911 5.86595 16.6667 5.44203 16.6667 5V1.66667C16.6667 1.22464 16.4911 0.800716 16.1785 0.488156C15.866 0.175595 15.442 0 15 0ZM3.33333 4.16667H1.66667V2.5H3.33333V4.16667ZM5.83333 4.16667H5V2.5H5.83333V4.16667Z" fill="url(#paint0_linear_289_17)"/>
<defs>
<linearGradient id="paint0_linear_289_17" x1="8.33333" y1="0" x2="8.33333" y2="6.66667" gradientUnits="userSpaceOnUse">
<stop stop-color="#1C9679"/>
<stop offset="1" stop-color="#01E2AD"/>
</linearGradient>
</defs>
</svg>
