<svg xmlns="http://www.w3.org/2000/svg" width="11" height="12" viewBox="0 0 11 12" fill="none">
  <path d="M9.97697 2.5068L9.12894 3.35484L7.91791 2.1438L8.76594 1.29577C9.10041 0.961305 9.64285 0.961305 9.97697 1.29577C10.3111 1.63024 10.3114 2.17234 9.97697 2.5068ZM9.49228 3.47549C9.55932 3.4088 9.66794 3.4088 9.73463 3.47549C9.80166 3.54252 9.80166 3.65115 9.73463 3.71784L6.58588 6.86693C6.51885 6.93362 6.41022 6.93362 6.34353 6.86693C6.27685 6.80024 6.27685 6.69162 6.34353 6.62493L8.4026 4.56587L6.70653 2.8698L7.43322 2.14346L9.12894 3.83918L9.49228 3.47549ZM6.70688 3.35484L7.91791 4.56587L3.0731 9.41068L1.86206 8.19965L6.70688 3.35484ZM0.772034 10.5007L1.61972 8.44199L2.83075 9.65302L0.772034 10.5007Z" fill="black"/>
</svg>