<svg width="33" height="33" viewBox="0 0 33 33" fill="none" xmlns="http://www.w3.org/2000/svg">
<g clip-path="url(#clip0_4872_2955)">
<path d="M9.42857 0C10.7324 0 11.7857 0.92168 11.7857 2.0625V4.125H21.2143V2.0625C21.2143 0.92168 22.2676 0 23.5714 0C24.8752 0 25.9286 0.92168 25.9286 2.0625V4.125H29.4643C31.4163 4.125 33 5.51074 33 7.21875V10.3125H0V7.21875C0 5.51074 1.58371 4.125 3.53571 4.125H7.07143V2.0625C7.07143 0.92168 8.12478 0 9.42857 0ZM0 12.375H33V29.9062C33 31.6143 31.4163 33 29.4643 33H3.53571C1.58371 33 0 31.6143 0 29.9062V12.375ZM24.2344 19.6582C24.9268 19.0523 24.9268 18.0727 24.2344 17.4732C23.542 16.8738 22.4223 16.8674 21.7373 17.4732L14.7395 23.5963L11.2775 20.567C10.585 19.9611 9.4654 19.9611 8.78036 20.567C8.09531 21.1729 8.08795 22.1525 8.78036 22.752L13.4946 26.877C14.1871 27.4828 15.3067 27.4828 15.9917 26.877L24.2344 19.6582Z" fill="#2B88EB"/>
</g>
<defs>
<clipPath id="clip0_4872_2955">
<rect width="33" height="33" fill="white"/>
</clipPath>
</defs>
</svg>
