<svg width="52" height="52" viewBox="0 0 52 52" fill="none" xmlns="http://www.w3.org/2000/svg">
<rect width="52" height="52" rx="5" fill="#2EBC96" fill-opacity="0.1"/>
<path d="M11.5 12C10.6687 12 10 12.6687 10 13.5V16.5C10 17.3313 10.6687 18 11.5 18H14.5C15.3313 18 16 17.3313 16 16.5V13.5C16 12.6687 15.3313 12 14.5 12H11.5ZM21 13C19.8938 13 19 13.8937 19 15C19 16.1062 19.8938 17 21 17H39C40.1063 17 41 16.1062 41 15C41 13.8937 40.1063 13 39 13H21ZM21 23C19.8938 23 19 23.8938 19 25C19 26.1062 19.8938 27 21 27H39C40.1063 27 41 26.1062 41 25C41 23.8938 40.1063 23 39 23H21ZM21 33C19.8938 33 19 33.8937 19 35C19 36.1063 19.8938 37 21 37H39C40.1063 37 41 36.1063 41 35C41 33.8937 40.1063 33 39 33H21ZM10 23.5V26.5C10 27.3313 10.6687 28 11.5 28H14.5C15.3313 28 16 27.3313 16 26.5V23.5C16 22.6687 15.3313 22 14.5 22H11.5C10.6687 22 10 22.6687 10 23.5ZM11.5 32C10.6687 32 10 32.6688 10 33.5V36.5C10 37.3312 10.6687 38 11.5 38H14.5C15.3313 38 16 37.3312 16 36.5V33.5C16 32.6688 15.3313 32 14.5 32H11.5Z" fill="#2EBC96"/>
</svg>
