<svg width="32" height="32" viewBox="0 0 32 32" fill="none" xmlns="http://www.w3.org/2000/svg">
<path d="M9.28401 1.1852C9.28401 0.530643 8.75338 1.14441e-05 8.09883 1.14441e-05C7.44427 1.14441e-05 6.91364 0.530643 6.91364 1.1852V3.68082C4.63915 3.86294 3.14597 4.30993 2.04896 5.40694C0.951957 6.50394 0.504969 7.99712 0.322845 10.2716H31.6772C31.4952 7.99712 31.0481 6.50394 29.9511 5.40694C28.8541 4.30993 27.3609 3.86294 25.0865 3.68082V1.1852C25.0865 0.530643 24.5558 1.14441e-05 23.9013 1.14441e-05C23.2467 1.14441e-05 22.7161 0.530643 22.7161 1.1852V3.57595C21.6648 3.55557 20.4864 3.55557 19.1605 3.55557H12.8396C11.5137 3.55557 10.3353 3.55557 9.28401 3.57595V1.1852Z" fill="#2EBC96"/>
<path fill-rule="evenodd" clip-rule="evenodd" d="M0.19754 16.1975C0.19754 14.8717 0.19754 13.6933 0.217926 12.642H31.7821C31.8025 13.6933 31.8025 14.8717 31.8025 16.1975V19.358C31.8025 25.3175 31.8025 28.2973 29.951 30.1486C28.0998 32 25.1199 32 19.1605 32H12.8395C6.88002 32 3.90029 32 2.04891 30.1486C0.19754 28.2973 0.19754 25.3175 0.19754 19.358V16.1975ZM23.9012 19.358C24.774 19.358 25.4815 18.6506 25.4815 17.7778C25.4815 16.905 24.774 16.1975 23.9012 16.1975C23.0285 16.1975 22.321 16.905 22.321 17.7778C22.321 18.6506 23.0285 19.358 23.9012 19.358ZM23.9012 25.679C24.774 25.679 25.4815 24.9715 25.4815 24.0988C25.4815 23.226 24.774 22.5185 23.9012 22.5185C23.0285 22.5185 22.321 23.226 22.321 24.0988C22.321 24.9715 23.0285 25.679 23.9012 25.679ZM17.5802 17.7778C17.5802 18.6506 16.8728 19.358 16 19.358C15.1272 19.358 14.4198 18.6506 14.4198 17.7778C14.4198 16.905 15.1272 16.1975 16 16.1975C16.8728 16.1975 17.5802 16.905 17.5802 17.7778ZM17.5802 24.0988C17.5802 24.9715 16.8728 25.679 16 25.679C15.1272 25.679 14.4198 24.9715 14.4198 24.0988C14.4198 23.226 15.1272 22.5185 16 22.5185C16.8728 22.5185 17.5802 23.226 17.5802 24.0988ZM8.09877 19.358C8.97151 19.358 9.67902 18.6506 9.67902 17.7778C9.67902 16.905 8.97151 16.1975 8.09877 16.1975C7.22603 16.1975 6.51852 16.905 6.51852 17.7778C6.51852 18.6506 7.22603 19.358 8.09877 19.358ZM8.09877 25.679C8.97151 25.679 9.67902 24.9715 9.67902 24.0988C9.67902 23.226 8.97151 22.5185 8.09877 22.5185C7.22603 22.5185 6.51852 23.226 6.51852 24.0988C6.51852 24.9715 7.22603 25.679 8.09877 25.679Z" fill="#2EBC96"/>
</svg>
