<svg xmlns="http://www.w3.org/2000/svg" width="800" height="800" viewBox="0 0 800 800" fill="none">
<path d="M400 60.8257C306.584 60.8257 221.206 127.456 221.206 264.397V344.754C185.044 349.107 167.299 370.871 167.299 413.729V669.197C167.299 717.411 189.397 739.174 233.929 739.174H566.071C610.603 739.174 632.701 717.411 632.701 669.197V413.393C632.701 370.536 614.956 347.767 578.794 343.75V264.397C578.794 127.456 493.416 60.8257 400 60.8257ZM275.111 257.031C275.111 163.617 330.691 112.389 400 112.389C469.307 112.389 524.889 163.617 524.889 257.031V343.416L275.111 343.75V257.031Z" fill="black"/>
</svg>