<svg xmlns="http://www.w3.org/2000/svg" width="75" height="75" viewBox="0 0 75 75" fill="none">
  <g filter="url(#filter0_d_1_1953)">
    <rect width="35" height="35" rx="5" transform="matrix(1 0 0 -1 18 53)" fill="white"/>
  </g>
  <path d="M35 33L38 36M38 36L35 39M38 36H27M32 40.7514V40.7998C32 41.9199 32 42.4804 32.218 42.9082C32.4097 43.2845 32.7155 43.5903 33.0918 43.782C33.5196 44 34.0801 44 35.2002 44H39.8002C40.9203 44 41.4796 44 41.9074 43.782C42.2837 43.5903 42.5905 43.2845 42.7822 42.9082C43 42.4808 43 41.921 43 40.8031V31.1964C43 30.0785 43 29.5195 42.7822 29.0921C42.5905 28.7158 42.2837 28.4095 41.9074 28.2178C41.48 28 40.921 28 39.8031 28H35.1969C34.079 28 33.5192 28 33.0918 28.2178C32.7155 28.4095 32.4097 28.7161 32.218 29.0924C32 29.5202 32 30.0799 32 31.2V31.25" stroke="black" stroke-width="2" stroke-linecap="round" stroke-linejoin="round"/>
  <defs>
    <filter id="filter0_d_1_1953" x="0" y="0" width="75" height="75" filterUnits="userSpaceOnUse" color-interpolation-filters="sRGB">
      <feFlood flood-opacity="0" result="BackgroundImageFix"/>
      <feColorMatrix in="SourceAlpha" type="matrix" values="0 0 0 0 0 0 0 0 0 0 0 0 0 0 0 0 0 0 127 0" result="hardAlpha"/>
      <feOffset dx="2" dy="2"/>
      <feGaussianBlur stdDeviation="10"/>
      <feComposite in2="hardAlpha" operator="out"/>
      <feColorMatrix type="matrix" values="0 0 0 0 0 0 0 0 0 0 0 0 0 0 0 0 0 0 0.3 0"/>
      <feBlend mode="normal" in2="BackgroundImageFix" result="effect1_dropShadow_1_1953"/>
      <feBlend mode="normal" in="SourceGraphic" in2="effect1_dropShadow_1_1953" result="shape"/>
    </filter>
  </defs>
</svg>