<svg xmlns="http://www.w3.org/2000/svg" width="25" height="25" viewBox="0 0 25 25" fill="none">
  <g clip-path="url(#clip0_1_1121)">
    <path d="M13.9303 5.28845H6.23798C5.92548 5.28845 5.625 5.30047 5.33654 5.33653C2.10337 5.61297 0.480774 7.52403 0.480774 11.0457V15.8534C0.480774 20.661 2.40385 21.6106 6.23798 21.6106H6.71875C6.98318 21.6106 7.33173 21.7909 7.48798 21.9952L8.93029 23.9183C9.56731 24.7716 10.601 24.7716 11.238 23.9183L12.6803 21.9952C12.8606 21.7548 13.149 21.6106 13.4495 21.6106H13.9303C17.4519 21.6106 19.363 20 19.6394 16.7548C19.6755 16.4663 19.6875 16.1659 19.6875 15.8534V11.0457C19.6875 7.21153 17.7644 5.28845 13.9303 5.28845ZM5.88943 14.9038C5.21635 14.9038 4.6875 14.363 4.6875 13.7019C4.6875 13.0409 5.22837 12.5 5.88943 12.5C6.55048 12.5 7.09135 13.0409 7.09135 13.7019C7.09135 14.363 6.55048 14.9038 5.88943 14.9038ZM10.0841 14.9038C9.41106 14.9038 8.88221 14.363 8.88221 13.7019C8.88221 13.0409 9.42308 12.5 10.0841 12.5C10.7452 12.5 11.2861 13.0409 11.2861 13.7019C11.2861 14.363 10.7572 14.9038 10.0841 14.9038ZM14.2909 14.9038C13.6178 14.9038 13.0889 14.363 13.0889 13.7019C13.0889 13.0409 13.6298 12.5 14.2909 12.5C14.9519 12.5 15.4928 13.0409 15.4928 13.7019C15.4928 14.363 14.9519 14.9038 14.2909 14.9038Z" fill="#1C9679"/>
    <path d="M24.4954 6.23792V11.0456C24.4954 13.4495 23.7502 15.0841 22.2599 15.9855C21.8993 16.2019 21.4786 15.9134 21.4786 15.4927L21.4906 11.0456C21.4906 6.23792 18.7382 3.48552 13.9305 3.48552L6.61089 3.49754C6.19021 3.49754 5.90175 3.07687 6.1181 2.71629C7.01954 1.22591 8.65416 0.480713 11.0459 0.480713H18.7382C22.5724 0.480713 24.4954 2.40379 24.4954 6.23792Z" fill="#1C9679"/>
  </g>
  <defs>
    <clipPath id="clip0_1_1121">
      <path d="M0 12C0 5.37258 5.37258 0 12 0H20C22.7614 0 25 2.23858 25 5V20C25 22.7614 22.7614 25 20 25H0V12Z" fill="white"/>
    </clipPath>
  </defs>
</svg>