<svg width="15" height="15" viewBox="0 0 15 15" fill="none" xmlns="http://www.w3.org/2000/svg">
<path d="M11.8139 2.875L9.93886 4.75M11.8139 2.875L13.6889 1M11.8139 2.875L13.6889 4.75M11.8139 2.875L9.93886 1M9.98536 9.43802C10.3928 8.8948 11.1303 8.72072 11.7376 9.0244L12.6641 9.4876C13.2692 9.79015 13.5968 10.4601 13.4642 11.1234L13.1801 12.5441C13.0398 13.2453 12.422 13.7609 11.7116 13.6806C6.26424 13.0644 1.62447 8.42462 1.00826 2.97733C0.927888 2.26684 1.44355 1.64907 2.14469 1.50884L3.56541 1.22469C4.22871 1.09203 4.89873 1.41972 5.20123 2.02474L5.66446 2.95126C5.96814 3.55856 5.79406 4.29612 5.25084 4.70351C4.89707 4.96885 4.68138 5.39503 4.85233 5.80286C5.43991 7.2046 7.48426 9.24895 8.88601 9.8365C9.29386 10.0075 9.72001 9.7918 9.98536 9.43802Z" stroke="white" stroke-width="2" stroke-linecap="round" stroke-linejoin="round"/>
</svg>
