<svg width="18" height="18" viewBox="0 0 18 18" fill="none" xmlns="http://www.w3.org/2000/svg">
<path d="M8.6 17.2C7.04 17.2 5.59333 16.8067 4.26 16.02C2.96667 15.26 1.94 14.2333 1.18 12.94C0.393333 11.6067 0 10.16 0 8.6C0 7.04 0.393333 5.59333 1.18 4.26C1.94 2.96667 2.96667 1.94 4.26 1.18C5.59333 0.393333 7.04 0 8.6 0C10.16 0 11.6067 0.393333 12.94 1.18C14.2333 1.94 15.26 2.96667 16.02 4.26C16.8067 5.59333 17.2 7.04 17.2 8.6C17.2 10.16 16.8067 11.6067 16.02 12.94C15.26 14.2333 14.2333 15.26 12.94 16.02C11.6067 16.8067 10.16 17.2 8.6 17.2ZM5 13.8C5.52 14.1733 6.09 14.4567 6.71 14.65C7.33 14.8433 7.96 14.94 8.6 14.94C9.74667 14.94 10.8133 14.6467 11.8 14.06C12.7467 13.5 13.5 12.7467 14.06 11.8C14.6467 10.8133 14.94 9.74667 14.94 8.6C14.94 7.96 14.8433 7.33 14.65 6.71C14.4567 6.09 14.1733 5.52 13.8 5L5 13.8ZM8.6 2.26C7.45333 2.26 6.38667 2.55333 5.4 3.14C4.45333 3.7 3.7 4.45333 3.14 5.4C2.55333 6.38667 2.26 7.45333 2.26 8.6C2.26 9.24 2.35667 9.87 2.55 10.49C2.74333 11.11 3.02667 11.68 3.4 12.2L12.2 3.4C11.68 3.02667 11.11 2.74333 10.49 2.55C9.87 2.35667 9.24 2.26 8.6 2.26Z" fill="url(#paint0_linear_289_27)"/>
<defs>
<linearGradient id="paint0_linear_289_27" x1="8.6" y1="0" x2="8.6" y2="17.2" gradientUnits="userSpaceOnUse">
<stop/>
<stop offset="0.0001" stop-color="#1C9679"/>
<stop offset="1" stop-color="#01E2AD"/>
</linearGradient>
</defs>
</svg>
