<svg width="22" height="22" viewBox="0 0 22 22" fill="none" xmlns="http://www.w3.org/2000/svg">
<path fill-rule="evenodd" clip-rule="evenodd" d="M15.0284 10.2168L14.3217 9.51011L15.5513 8.27924L13.7212 6.44913L12.489 7.68259L11.7836 6.99143L16.1882 2.58049L19.4214 5.80586L15.0284 10.2168ZM10.2213 15.0057L5.82835 19.4166L2.58348 16.1912L6.98808 11.7803L7.6896 12.4818L6.42892 13.7411L8.2591 15.5713L9.52107 14.3106L10.2213 15.0057V15.0057ZM21.2516 3.98222L18.008 0.738739C16.9932 -0.250109 15.3585 -0.246235 14.3644 0.750383L9.95338 5.1613C8.95027 6.16567 8.95027 7.79777 9.95338 8.80214L10.6601 9.51011L9.51977 10.6504L8.82861 9.96053C8.34582 9.46611 7.70125 9.19172 7.01136 9.18784H6.99584C6.30597 9.18784 5.65621 9.45835 5.16436 9.94889L0.753296 14.3611C-0.251099 15.3655 -0.251099 16.9976 0.753296 18.002L3.99816 21.2467C4.50037 21.7489 5.15918 22 5.81929 22C6.4781 22 7.13821 21.7489 7.6404 21.2467L12.0515 16.8358C12.5472 16.3401 12.8177 15.6839 12.8138 14.9888C12.8087 14.299 12.5343 13.6544 12.0515 13.182L11.3499 12.4818L12.4915 11.3402L13.1982 12.0482C13.7004 12.5491 14.3593 12.8002 15.0194 12.8002C15.6782 12.8002 16.3383 12.5491 16.8392 12.0469L21.2516 7.63598C22.2469 6.64067 22.2521 5.00598 21.2516 3.9822L21.2516 3.98222Z" fill="url(#paint0_linear_289_10)"/>
<defs>
<linearGradient id="paint0_linear_289_10" x1="11" y1="0" x2="11" y2="22" gradientUnits="userSpaceOnUse">
<stop stop-color="#1C9679"/>
<stop offset="1" stop-color="#01E2AD"/>
</linearGradient>
</defs>
</svg>
