<svg xmlns="http://www.w3.org/2000/svg" width="35" height="35" viewBox="0 0 35 35" fill="none">
  <path d="M18.9676 4.50439C18.7117 4.50439 18.5038 4.71229 18.5038 4.96849C18.5038 4.99229 18.514 5.01294 18.5175 5.03604H18.5038V16.0393C18.5038 16.2955 18.7117 16.5034 18.9676 16.5034H29.9705V16.4898C29.9936 16.4933 30.0143 16.5034 30.0384 16.5034C30.2943 16.5034 30.5022 16.2955 30.5022 16.0393C30.4364 9.69734 25.3096 4.57054 18.9676 4.50439Z" fill="white"/>
  <path d="M27.8198 18.711C27.8198 18.4548 27.6122 18.2469 27.356 18.2469H17.2414C16.9852 18.2469 16.7776 18.039 16.7776 17.7828V7.70523H16.764C16.7675 7.68213 16.7776 7.66148 16.7776 7.63768C16.7776 7.38113 16.5697 7.17358 16.3135 7.17358C16.3023 7.17358 16.2932 7.17918 16.2824 7.17988V7.17673C16.2411 7.17638 16.2001 7.17358 16.1588 7.17358C9.71881 7.17358 4.49786 12.3945 4.49786 18.8345C4.49786 25.2745 9.71881 30.4955 16.1588 30.4955C22.5988 30.4955 27.8198 25.2745 27.8198 18.8345C27.8198 18.7974 27.818 18.7607 27.8173 18.7232C27.8173 18.7187 27.8198 18.7152 27.8198 18.711Z" fill="white"/>
</svg>