<svg width="15" height="16" viewBox="0 0 15 16" fill="none" xmlns="http://www.w3.org/2000/svg">
<path d="M11.0833 12.6667H14.25L11.0833 15.8333V12.6667ZM14.25 0.791667V11.0833H9.5V15.8333H0.791667C0.581704 15.8333 0.38034 15.7499 0.231874 15.6015C0.0834075 15.453 0 15.2516 0 15.0417V0.791667C0 0.581704 0.0834075 0.38034 0.231874 0.231874C0.38034 0.0834075 0.581704 0 0.791667 0H13.4583C13.6683 0 13.8697 0.0834075 14.0181 0.231874C14.1666 0.38034 14.25 0.581704 14.25 0.791667ZM7.91667 9.5C7.91667 9.29004 7.83326 9.08867 7.68479 8.94021C7.53633 8.79174 7.33496 8.70833 7.125 8.70833H3.95833C3.74837 8.70833 3.54701 8.79174 3.39854 8.94021C3.25007 9.08867 3.16667 9.29004 3.16667 9.5C3.16667 9.70996 3.25007 9.91133 3.39854 10.0598C3.54701 10.2083 3.74837 10.2917 3.95833 10.2917H7.125C7.33496 10.2917 7.53633 10.2083 7.68479 10.0598C7.83326 9.91133 7.91667 9.70996 7.91667 9.5ZM11.0833 5.54167C11.0833 5.3317 10.9999 5.13034 10.8515 4.98187C10.703 4.83341 10.5016 4.75 10.2917 4.75H3.95833C3.74837 4.75 3.54701 4.83341 3.39854 4.98187C3.25007 5.13034 3.16667 5.3317 3.16667 5.54167C3.16667 5.75163 3.25007 5.95299 3.39854 6.10146C3.54701 6.24993 3.74837 6.33333 3.95833 6.33333H10.2917C10.5016 6.33333 10.703 6.24993 10.8515 6.10146C10.9999 5.95299 11.0833 5.75163 11.0833 5.54167Z" fill="white"/>
</svg>
