<svg width="20" height="16" viewBox="0 0 20 16" fill="none" xmlns="http://www.w3.org/2000/svg">
<path d="M18.3333 0H1.66667C0.746528 0 0 0.746528 0 1.66667V2.22222H20V1.66667C20 0.746528 19.2535 0 18.3333 0ZM0 13.8889C0 14.809 0.746528 15.5556 1.66667 15.5556H18.3333C19.2535 15.5556 20 14.809 20 13.8889V3.33333H0V13.8889ZM12.2222 5.83333C12.2222 5.68056 12.3472 5.55556 12.5 5.55556H17.5C17.6528 5.55556 17.7778 5.68056 17.7778 5.83333V6.38889C17.7778 6.54167 17.6528 6.66667 17.5 6.66667H12.5C12.3472 6.66667 12.2222 6.54167 12.2222 6.38889V5.83333ZM12.2222 8.05556C12.2222 7.90278 12.3472 7.77778 12.5 7.77778H17.5C17.6528 7.77778 17.7778 7.90278 17.7778 8.05556V8.61111C17.7778 8.76389 17.6528 8.88889 17.5 8.88889H12.5C12.3472 8.88889 12.2222 8.76389 12.2222 8.61111V8.05556ZM12.2222 10.2778C12.2222 10.125 12.3472 10 12.5 10H17.5C17.6528 10 17.7778 10.125 17.7778 10.2778V10.8333C17.7778 10.9861 17.6528 11.1111 17.5 11.1111H12.5C12.3472 11.1111 12.2222 10.9861 12.2222 10.8333V10.2778ZM6.11111 5.55556C7.33681 5.55556 8.33333 6.55208 8.33333 7.77778C8.33333 9.00347 7.33681 10 6.11111 10C4.88542 10 3.88889 9.00347 3.88889 7.77778C3.88889 6.55208 4.88542 5.55556 6.11111 5.55556ZM2.32986 12.6458C2.62153 11.7535 3.45833 11.1111 4.44444 11.1111H4.72917C5.15625 11.2882 5.62153 11.3889 6.11111 11.3889C6.60069 11.3889 7.06944 11.2882 7.49306 11.1111H7.77778C8.76389 11.1111 9.60069 11.7535 9.89236 12.6458C10.0035 12.9896 9.71181 13.3333 9.35069 13.3333H2.87153C2.51042 13.3333 2.21875 12.9861 2.32986 12.6458Z" fill="white"/>
</svg>
