<svg width="20" height="16" viewBox="0 0 20 16" fill="none" xmlns="http://www.w3.org/2000/svg">
<path d="M18.3333 0.222168H1.66667C0.746528 0.222168 0 0.968696 0 1.88883V2.44439H20V1.88883C20 0.968696 19.2535 0.222168 18.3333 0.222168ZM0 14.1111C0 15.0312 0.746528 15.7777 1.66667 15.7777H18.3333C19.2535 15.7777 20 15.0312 20 14.1111V3.5555H0V14.1111ZM12.2222 6.0555C12.2222 5.90272 12.3472 5.77772 12.5 5.77772H17.5C17.6528 5.77772 17.7778 5.90272 17.7778 6.0555V6.61106C17.7778 6.76383 17.6528 6.88883 17.5 6.88883H12.5C12.3472 6.88883 12.2222 6.76383 12.2222 6.61106V6.0555ZM12.2222 8.27772C12.2222 8.12495 12.3472 7.99995 12.5 7.99995H17.5C17.6528 7.99995 17.7778 8.12495 17.7778 8.27772V8.83328C17.7778 8.98606 17.6528 9.11106 17.5 9.11106H12.5C12.3472 9.11106 12.2222 8.98606 12.2222 8.83328V8.27772ZM12.2222 10.4999C12.2222 10.3472 12.3472 10.2222 12.5 10.2222H17.5C17.6528 10.2222 17.7778 10.3472 17.7778 10.4999V11.0555C17.7778 11.2083 17.6528 11.3333 17.5 11.3333H12.5C12.3472 11.3333 12.2222 11.2083 12.2222 11.0555V10.4999ZM6.11111 5.77772C7.33681 5.77772 8.33333 6.77425 8.33333 7.99995C8.33333 9.22564 7.33681 10.2222 6.11111 10.2222C4.88542 10.2222 3.88889 9.22564 3.88889 7.99995C3.88889 6.77425 4.88542 5.77772 6.11111 5.77772ZM2.32986 12.868C2.62153 11.9756 3.45833 11.3333 4.44444 11.3333H4.72917C5.15625 11.5104 5.62153 11.6111 6.11111 11.6111C6.60069 11.6111 7.06944 11.5104 7.49306 11.3333H7.77778C8.76389 11.3333 9.60069 11.9756 9.89236 12.868C10.0035 13.2118 9.71181 13.5555 9.35069 13.5555H2.87153C2.51042 13.5555 2.21875 13.2083 2.32986 12.868Z" fill="url(#paint0_linear_289_13)"/>
<defs>
<linearGradient id="paint0_linear_289_13" x1="10" y1="0.222168" x2="10" y2="15.7777" gradientUnits="userSpaceOnUse">
<stop stop-color="#1C9679"/>
<stop offset="1" stop-color="#01E2AD"/>
</linearGradient>
</defs>
</svg>
