<svg xmlns="http://www.w3.org/2000/svg" width="20" height="20" viewBox="0 0 20 20" fill="none">
  <path d="M9.16667 1.66669L10.8333 3.32956L10.784 3.37897M10.784 3.37897L9.16667 5.00002M10.784 3.37897C10.5269 3.34885 10.2653 3.33335 10 3.33335C6.3181 3.33335 3.33333 6.31812 3.33333 10C3.33333 12.1054 4.30923 13.9828 5.83333 15.2045M10.8333 15.0001L9.16667 16.5924L9.19142 16.6181M9.19142 16.6181C9.45642 16.6502 9.72633 16.6667 10 16.6667C13.6819 16.6667 16.6667 13.6819 16.6667 10C16.6667 7.8947 15.6908 6.01731 14.1667 4.79555M9.19142 16.6181L10.8333 18.3334" stroke="white" stroke-width="2" stroke-linecap="round" stroke-linejoin="round"/>
</svg>