<svg xmlns="http://www.w3.org/2000/svg" width="16" height="16" viewBox="0 0 16 16" fill="none">
  <g clip-path="url(#clip0_1_1963)">
    <path d="M15.3333 7.99999C15.3333 9.45038 14.9032 10.8682 14.0974 12.0742C13.2916 13.2801 12.1463 14.2201 10.8063 14.7751C9.46635 15.3301 7.99187 15.4754 6.56934 15.1924C5.14681 14.9095 3.84014 14.211 2.81455 13.1854C1.78897 12.1599 1.09053 10.8532 0.807575 9.43065C0.524617 8.00812 0.669842 6.53363 1.22488 5.19364C1.77993 3.85365 2.71986 2.70834 3.92582 1.90254C5.13178 1.09675 6.5496 0.666653 8 0.666653C9.38855 0.662017 10.7494 1.05531 11.9213 1.79999L12.862 0.85932C12.9554 0.765951 13.0744 0.702424 13.204 0.676797C13.3335 0.65117 13.4678 0.664596 13.5897 0.715374C13.7116 0.766152 13.8157 0.851992 13.8887 0.962009C13.9618 1.07202 14.0005 1.20126 14 1.33332V3.99999C14 4.1768 13.9298 4.34637 13.8047 4.47139C13.6797 4.59641 13.5101 4.66665 13.3333 4.66665H10.6667C10.5348 4.66662 10.406 4.62751 10.2964 4.55425C10.1868 4.481 10.1013 4.37689 10.0509 4.25509C10.0004 4.13329 9.98723 3.99927 10.0129 3.86997C10.0387 3.74066 10.1021 3.62189 10.1953 3.52865L10.9467 2.77732C10.0489 2.26608 9.03315 1.99813 8 1.99999C6.81331 1.99999 5.65327 2.35188 4.66658 3.01117C3.67988 3.67046 2.91085 4.60753 2.45672 5.70389C2.0026 6.80024 1.88378 8.00664 2.11529 9.17053C2.3468 10.3344 2.91824 11.4035 3.75736 12.2426C4.59647 13.0817 5.66557 13.6532 6.82946 13.8847C7.99334 14.1162 9.19974 13.9974 10.2961 13.5433C11.3925 13.0891 12.3295 12.3201 12.9888 11.3334C13.6481 10.3467 14 9.18667 14 7.99999C14 7.82317 14.0702 7.65361 14.1953 7.52858C14.3203 7.40356 14.4899 7.33332 14.6667 7.33332C14.8435 7.33332 15.013 7.40356 15.1381 7.52858C15.2631 7.65361 15.3333 7.82317 15.3333 7.99999Z" fill="black"/>
  </g>
  <defs>
    <clipPath id="clip0_1_1963">
      <rect width="16" height="16" fill="white"/>
    </clipPath>
  </defs>
</svg>