<svg width="19" height="19" viewBox="0 0 19 19" fill="none" xmlns="http://www.w3.org/2000/svg">
<path d="M9.5 0C4.25273 0 0 3.1877 0 7.125C0 9.9082 2.13379 12.3129 5.23613 13.4855L3.16543 19L9.12148 14.2352C9.24766 14.2389 9.37012 14.25 9.5 14.25C14.7473 14.25 19 11.0623 19 7.125C19 3.1877 14.7473 0 9.5 0ZM4.75 8.70957C3.87793 8.70957 3.16543 8.00078 3.16543 7.125C3.16543 6.24922 3.87422 5.54043 4.75 5.54043C5.62207 5.54043 6.33457 6.24922 6.33457 7.125C6.33457 8.00078 5.62207 8.70957 4.75 8.70957ZM9.5 8.70957C8.62793 8.70957 7.91543 8.00078 7.91543 7.125C7.91543 6.24922 8.62422 5.54043 9.5 5.54043C10.3721 5.54043 11.0846 6.24922 11.0846 7.125C11.0846 8.00078 10.3721 8.70957 9.5 8.70957ZM14.25 8.70957C13.3779 8.70957 12.6654 8.00078 12.6654 7.125C12.6654 6.24922 13.3742 5.54043 14.25 5.54043C15.1221 5.54043 15.8346 6.24922 15.8346 7.125C15.8346 8.00078 15.1221 8.70957 14.25 8.70957Z" fill="white"/>
</svg>
