<svg xmlns="http://www.w3.org/2000/svg" width="31" height="30" viewBox="0 0 31 30" fill="none">
  <g clip-path="url(#clip0_1_1093)">
    <path d="M30.884 0H0.884033V30H30.884V0Z" fill="white"/>
    <path d="M17.759 2.5L18.3792 2.42248C18.3402 2.10971 18.0743 1.875 17.759 1.875V2.5ZM14.009 2.5V1.875C13.6938 1.875 13.4279 2.10971 13.3889 2.42248L14.009 2.5ZM18.1024 5.24692L17.4823 5.32444C17.5149 5.58561 17.7077 5.79834 17.9643 5.85649L18.1024 5.24692ZM21.2112 6.53548L20.8778 7.06413C21.1004 7.20452 21.387 7.19041 21.5949 7.02883L21.2112 6.53548ZM23.397 4.83532L23.839 4.39339C23.6162 4.1705 23.2622 4.14846 23.0133 4.34199L23.397 4.83532ZM26.0487 7.48698L26.542 7.87069C26.7355 7.62189 26.7135 7.26793 26.4907 7.04504L26.0487 7.48698ZM24.3485 9.67289L23.8552 9.28918C23.6937 9.49693 23.6795 9.78366 23.8199 10.0063L24.3485 9.67289ZM25.6372 12.7816L25.0275 12.9198C25.0857 13.1764 25.2984 13.3691 25.5595 13.4018L25.6372 12.7816ZM28.384 13.125H29.009C29.009 12.8097 28.7743 12.5439 28.4615 12.5049L28.384 13.125ZM28.384 16.875L28.4615 17.4951C28.7743 17.4561 29.009 17.1903 29.009 16.875H28.384ZM25.6372 17.2184L25.5595 16.5982C25.2984 16.6309 25.0857 16.8236 25.0275 17.0802L25.6372 17.2184ZM24.3485 20.3271L23.8199 19.9937C23.6795 20.2164 23.6937 20.5031 23.8552 20.7109L24.3485 20.3271ZM26.0487 22.513L26.4907 22.955C26.7135 22.7321 26.7355 22.3781 26.542 22.1292L26.0487 22.513ZM23.397 25.1646L23.0133 25.658C23.2622 25.8515 23.6162 25.8295 23.839 25.6066L23.397 25.1646ZM21.2112 23.4645L21.5949 22.9711C21.387 22.8096 21.1004 22.7955 20.8778 22.9359L21.2112 23.4645ZM18.1024 24.7531L17.9643 24.1435C17.7077 24.2016 17.5149 24.4144 17.4823 24.6755L18.1024 24.7531ZM17.759 27.5V28.125C18.0743 28.125 18.3402 27.8903 18.3792 27.5775L17.759 27.5ZM14.009 27.5L13.3889 27.5775C13.4279 27.8903 13.6938 28.125 14.009 28.125V27.5ZM13.6657 24.7531L14.2858 24.6755C14.2532 24.4144 14.0604 24.2016 13.8038 24.1435L13.6657 24.7531ZM10.5569 23.4645L10.8903 22.9359C10.6677 22.7955 10.381 22.8096 10.1732 22.9711L10.5569 23.4645ZM8.37102 25.1646L7.92908 25.6066C8.15197 25.8295 8.50593 25.8515 8.75473 25.658L8.37102 25.1646ZM5.71937 22.513L5.22603 22.1292C5.03251 22.3781 5.05455 22.7321 5.27743 22.955L5.71937 22.513ZM7.41952 20.3271L7.91287 20.7109C8.07446 20.5031 8.08857 20.2164 7.94817 19.9937L7.41952 20.3271ZM6.13096 17.2184L6.74052 17.0802C6.68237 16.8236 6.46965 16.6309 6.20847 16.5982L6.13096 17.2184ZM3.38403 16.875H2.75903C2.75903 17.1903 2.99375 17.4561 3.30651 17.4951L3.38403 16.875ZM3.38403 13.125L3.30651 12.5049C2.99375 12.5439 2.75903 12.8097 2.75903 13.125H3.38403ZM6.13096 12.7816L6.20847 13.4018C6.46965 13.3691 6.68237 13.1764 6.74052 12.9198L6.13096 12.7816ZM7.41952 9.67289L7.94817 10.0063C8.08857 9.78366 8.07446 9.49694 7.91287 9.28918L7.41952 9.67289ZM5.71937 7.48699L5.27743 7.04504C5.05455 7.26793 5.03251 7.62189 5.22602 7.8707L5.71937 7.48699ZM8.37102 4.83534L8.75473 4.34199C8.50593 4.14847 8.15196 4.17051 7.92908 4.39339L8.37102 4.83534ZM10.5569 6.53549L10.1732 7.02883C10.381 7.19041 10.6677 7.20454 10.8903 7.06413L10.5569 6.53549ZM13.6657 5.24692L13.8038 5.85649C14.0604 5.79834 14.2532 5.58561 14.2858 5.32444L13.6657 5.24692ZM17.759 1.875H14.009V3.125H17.759V1.875ZM18.7225 5.1694L18.3792 2.42248L17.1389 2.57753L17.4823 5.32444L18.7225 5.1694ZM21.5445 6.00684C20.5439 5.37574 19.4302 4.90681 18.2404 4.63736L17.9643 5.85649C19.0128 6.09396 19.9948 6.50729 20.8778 7.06413L21.5445 6.00684ZM21.5949 7.02883L23.7808 5.32867L23.0133 4.34199L20.8274 6.04214L21.5949 7.02883ZM22.9552 5.27727L25.6068 7.92893L26.4907 7.04504L23.839 4.39339L22.9552 5.27727ZM25.5554 7.10326L23.8552 9.28918L24.8419 10.0566L26.542 7.87069L25.5554 7.10326ZM26.2467 12.6436C25.9773 11.4539 25.5083 10.3402 24.8772 9.33948L23.8199 10.0063C24.3768 10.8892 24.79 11.8712 25.0275 12.9198L26.2467 12.6436ZM28.4615 12.5049L25.7147 12.1615L25.5595 13.4018L28.3065 13.7451L28.4615 12.5049ZM29.009 16.875V13.125H27.759V16.875H29.009ZM25.7147 17.8385L28.4615 17.4951L28.3065 16.2549L25.5595 16.5982L25.7147 17.8385ZM24.8772 20.6605C25.5083 19.6599 25.9773 18.5461 26.2467 17.3564L25.0275 17.0802C24.79 18.1287 24.3768 19.1108 23.8199 19.9937L24.8772 20.6605ZM26.542 22.1292L24.8419 19.9434L23.8552 20.7109L25.5554 22.8967L26.542 22.1292ZM23.839 25.6066L26.4907 22.955L25.6068 22.0711L22.9552 24.7227L23.839 25.6066ZM20.8274 23.9579L23.0133 25.658L23.7808 24.6714L21.5949 22.9711L20.8274 23.9579ZM18.2404 25.3626C19.4302 25.0933 20.5439 24.6243 21.5445 23.9931L20.8778 22.9359C19.9948 23.4928 19.0128 23.906 17.9643 24.1435L18.2404 25.3626ZM18.3792 27.5775L18.7225 24.8306L17.4823 24.6755L17.1389 27.4225L18.3792 27.5775ZM14.009 28.125H17.759V26.875H14.009V28.125ZM13.0455 24.8306L13.3889 27.5775L14.6292 27.4225L14.2858 24.6755L13.0455 24.8306ZM10.2235 23.9931C11.2242 24.6243 12.338 25.0933 13.5277 25.3626L13.8038 24.1435C12.7552 23.906 11.7733 23.4928 10.8903 22.9359L10.2235 23.9931ZM8.75473 25.658L10.9406 23.9579L10.1732 22.9711L7.98731 24.6714L8.75473 25.658ZM5.27743 22.955L7.92908 25.6066L8.81297 24.7227L6.16132 22.0711L5.27743 22.955ZM6.92618 19.9434L5.22603 22.1292L6.21272 22.8967L7.91287 20.7109L6.92618 19.9434ZM5.5214 17.3564C5.79085 18.5461 6.25977 19.6599 6.89087 20.6605L7.94817 19.9937C7.39133 19.1108 6.978 18.1287 6.74052 17.0802L5.5214 17.3564ZM3.30651 17.4951L6.05343 17.8385L6.20847 16.5982L3.46156 16.2549L3.30651 17.4951ZM2.75903 13.125V16.875H4.00903V13.125H2.75903ZM6.05343 12.1615L3.30651 12.5049L3.46156 13.7451L6.20847 13.4018L6.05343 12.1615ZM6.89087 9.33949C6.25977 10.3402 5.79085 11.4539 5.5214 12.6436L6.74052 12.9198C6.978 11.8712 7.39132 10.8892 7.94817 10.0063L6.89087 9.33949ZM5.22602 7.8707L6.92617 10.0566L7.91287 9.28918L6.21272 7.10328L5.22602 7.8707ZM7.92908 4.39339L5.27743 7.04504L6.16131 7.92893L8.81296 5.27727L7.92908 4.39339ZM10.9406 6.04214L8.75473 4.34199L7.98731 5.32867L10.1732 7.02883L10.9406 6.04214ZM13.5277 4.63736C12.3379 4.90681 11.2242 5.37574 10.2235 6.00684L10.8903 7.06413C11.7733 6.50729 12.7552 6.09396 13.8038 5.85649L13.5277 4.63736ZM13.3889 2.42248L13.0455 5.1694L14.2858 5.32444L14.6292 2.57753L13.3889 2.42248Z" fill="black"/>
    <path d="M15.884 20C18.6455 20 20.884 17.7614 20.884 15C20.884 12.2386 18.6455 10 15.884 10C13.1226 10 10.884 12.2386 10.884 15C10.884 17.7614 13.1226 20 15.884 20Z" stroke="black" stroke-linejoin="round"/>
  </g>
  <defs>
    <clipPath id="clip0_1_1093">
      <rect width="30" height="30" fill="white" transform="translate(0.884033)"/>
    </clipPath>
  </defs>
</svg>