<svg xmlns="http://www.w3.org/2000/svg" width="30" height="30" viewBox="0 0 30 30" fill="none">
  <g clip-path="url(#clip0_1_364)">
    <path d="M29.9999 0H-9.15527e-05V30H29.9999V0Z" fill="#31E080"/>
    <path d="M16.8749 2.5L17.495 2.42248C17.456 2.10971 17.1902 1.875 16.8749 1.875V2.5ZM13.1249 2.5V1.875C12.8097 1.875 12.5438 2.10971 12.5048 2.42248L13.1249 2.5ZM17.2183 5.24692L16.5982 5.32444C16.6308 5.58561 16.8235 5.79834 17.0802 5.85649L17.2183 5.24692ZM20.327 6.53548L19.9937 7.06413C20.2163 7.20452 20.5029 7.19041 20.7108 7.02883L20.327 6.53548ZM22.5129 4.83532L22.9549 4.39339C22.732 4.1705 22.378 4.14846 22.1292 4.34199L22.5129 4.83532ZM25.1645 7.48698L25.6579 7.87069C25.8514 7.62189 25.8294 7.26793 25.6065 7.04504L25.1645 7.48698ZM23.4644 9.67289L22.971 9.28918C22.8095 9.49693 22.7954 9.78366 22.9358 10.0063L23.4644 9.67289ZM24.753 12.7816L24.1434 12.9198C24.2015 13.1764 24.4143 13.3691 24.6754 13.4018L24.753 12.7816ZM27.4999 13.125H28.1249C28.1249 12.8097 27.8902 12.5439 27.5774 12.5049L27.4999 13.125ZM27.4999 16.875L27.5774 17.4951C27.8902 17.4561 28.1249 17.1903 28.1249 16.875H27.4999ZM24.753 17.2184L24.6754 16.5982C24.4143 16.6309 24.2015 16.8236 24.1434 17.0802L24.753 17.2184ZM23.4644 20.3271L22.9358 19.9937C22.7954 20.2164 22.8095 20.5031 22.971 20.7109L23.4644 20.3271ZM25.1645 22.513L25.6065 22.955C25.8294 22.7321 25.8514 22.3781 25.6579 22.1292L25.1645 22.513ZM22.5129 25.1646L22.1292 25.658C22.378 25.8515 22.732 25.8295 22.9549 25.6066L22.5129 25.1646ZM20.327 23.4645L20.7108 22.9711C20.5029 22.8096 20.2163 22.7955 19.9937 22.9359L20.327 23.4645ZM17.2183 24.7531L17.0802 24.1435C16.8235 24.2016 16.6308 24.4144 16.5982 24.6755L17.2183 24.7531ZM16.8749 27.5V28.125C17.1902 28.125 17.456 27.8903 17.495 27.5775L16.8749 27.5ZM13.1249 27.5L12.5048 27.5775C12.5438 27.8903 12.8097 28.125 13.1249 28.125V27.5ZM12.7815 24.7531L13.4017 24.6755C13.369 24.4144 13.1763 24.2016 12.9197 24.1435L12.7815 24.7531ZM9.67281 23.4645L10.0062 22.9359C9.78358 22.7955 9.49686 22.8096 9.2891 22.9711L9.67281 23.4645ZM7.4869 25.1646L7.04496 25.6066C7.26785 25.8295 7.62181 25.8515 7.87061 25.658L7.4869 25.1646ZM4.83525 22.513L4.34191 22.1292C4.14838 22.3781 4.17042 22.7321 4.39331 22.955L4.83525 22.513ZM6.5354 20.3271L7.02875 20.7109C7.19033 20.5031 7.20445 20.2164 7.06405 19.9937L6.5354 20.3271ZM5.24683 17.2184L5.8564 17.0802C5.79825 16.8236 5.58552 16.6309 5.32435 16.5982L5.24683 17.2184ZM2.49991 16.875H1.87491C1.87491 17.1903 2.10962 17.4561 2.42238 17.4951L2.49991 16.875ZM2.49991 13.125L2.42238 12.5049C2.10962 12.5439 1.87491 12.8097 1.87491 13.125H2.49991ZM5.24683 12.7816L5.32435 13.4018C5.58552 13.3691 5.79825 13.1764 5.8564 12.9198L5.24683 12.7816ZM6.5354 9.67289L7.06405 10.0063C7.20445 9.78366 7.19033 9.49694 7.02875 9.28918L6.5354 9.67289ZM4.83525 7.48699L4.39331 7.04504C4.17042 7.26793 4.14838 7.62189 4.3419 7.8707L4.83525 7.48699ZM7.4869 4.83534L7.87061 4.34199C7.62181 4.14847 7.26783 4.17051 7.04496 4.39339L7.4869 4.83534ZM9.67281 6.53549L9.2891 7.02883C9.49685 7.19041 9.78358 7.20454 10.0062 7.06413L9.67281 6.53549ZM12.7815 5.24692L12.9197 5.85649C13.1763 5.79834 13.369 5.58561 13.4017 5.32444L12.7815 5.24692ZM16.8749 1.875H13.1249V3.125H16.8749V1.875ZM17.8384 5.1694L17.495 2.42248L16.2548 2.57753L16.5982 5.32444L17.8384 5.1694ZM20.6604 6.00684C19.6598 5.37574 18.546 4.90681 17.3563 4.63736L17.0802 5.85649C18.1287 6.09396 19.1107 6.50729 19.9937 7.06413L20.6604 6.00684ZM20.7108 7.02883L22.8967 5.32867L22.1292 4.34199L19.9433 6.04214L20.7108 7.02883ZM22.071 5.27727L24.7227 7.92893L25.6065 7.04504L22.9549 4.39339L22.071 5.27727ZM24.6713 7.10326L22.971 9.28918L23.9578 10.0566L25.6579 7.87069L24.6713 7.10326ZM25.3625 12.6436C25.0932 11.4539 24.6242 10.3402 23.993 9.33948L22.9358 10.0063C23.4927 10.8892 23.9059 11.8712 24.1434 12.9198L25.3625 12.6436ZM27.5774 12.5049L24.8305 12.1615L24.6754 13.4018L27.4224 13.7451L27.5774 12.5049ZM28.1249 16.875V13.125H26.8749V16.875H28.1249ZM24.8305 17.8385L27.5774 17.4951L27.4224 16.2549L24.6754 16.5982L24.8305 17.8385ZM23.993 20.6605C24.6242 19.6599 25.0932 18.5461 25.3625 17.3564L24.1434 17.0802C23.9059 18.1287 23.4927 19.1108 22.9358 19.9937L23.993 20.6605ZM25.6579 22.1292L23.9578 19.9434L22.971 20.7109L24.6713 22.8967L25.6579 22.1292ZM22.9549 25.6066L25.6065 22.955L24.7227 22.0711L22.071 24.7227L22.9549 25.6066ZM19.9433 23.9579L22.1292 25.658L22.8967 24.6714L20.7108 22.9711L19.9433 23.9579ZM17.3563 25.3626C18.546 25.0933 19.6598 24.6243 20.6604 23.9931L19.9937 22.9359C19.1107 23.4928 18.1287 23.906 17.0802 24.1435L17.3563 25.3626ZM17.495 27.5775L17.8384 24.8306L16.5982 24.6755L16.2548 27.4225L17.495 27.5775ZM13.1249 28.125H16.8749V26.875H13.1249V28.125ZM12.1614 24.8306L12.5048 27.5775L13.745 27.4225L13.4017 24.6755L12.1614 24.8306ZM9.33941 23.9931C10.3401 24.6243 11.4538 25.0933 12.6435 25.3626L12.9197 24.1435C11.8711 23.906 10.8891 23.4928 10.0062 22.9359L9.33941 23.9931ZM7.87061 25.658L10.0565 23.9579L9.2891 22.9711L7.10318 24.6714L7.87061 25.658ZM4.39331 22.955L7.04496 25.6066L7.92885 24.7227L5.2772 22.0711L4.39331 22.955ZM6.04206 19.9434L4.34191 22.1292L5.3286 22.8967L7.02875 20.7109L6.04206 19.9434ZM4.63727 17.3564C4.90672 18.5461 5.37565 19.6599 6.00675 20.6605L7.06405 19.9937C6.50721 19.1108 6.09387 18.1287 5.8564 17.0802L4.63727 17.3564ZM2.42238 17.4951L5.16931 17.8385L5.32435 16.5982L2.57743 16.2549L2.42238 17.4951ZM1.87491 13.125V16.875H3.12491V13.125H1.87491ZM5.16931 12.1615L2.42238 12.5049L2.57743 13.7451L5.32435 13.4018L5.16931 12.1615ZM6.00675 9.33949C5.37565 10.3402 4.90672 11.4539 4.63727 12.6436L5.8564 12.9198C6.09387 11.8712 6.5072 10.8892 7.06405 10.0063L6.00675 9.33949ZM4.3419 7.8707L6.04205 10.0566L7.02875 9.28918L5.3286 7.10328L4.3419 7.8707ZM7.04496 4.39339L4.39331 7.04504L5.27718 7.92893L7.92883 5.27727L7.04496 4.39339ZM10.0565 6.04214L7.87061 4.34199L7.10318 5.32867L9.2891 7.02883L10.0565 6.04214ZM12.6435 4.63736C11.4538 4.90681 10.3401 5.37574 9.33941 6.00684L10.0062 7.06413C10.8891 6.50729 11.8711 6.09396 12.9197 5.85649L12.6435 4.63736ZM12.5048 2.42248L12.1614 5.1694L13.4017 5.32444L13.745 2.57753L12.5048 2.42248Z" fill="white"/>
    <path d="M14.9999 20C17.7613 20 19.9999 17.7614 19.9999 15C19.9999 12.2386 17.7613 10 14.9999 10C12.2385 10 9.99991 12.2386 9.99991 15C9.99991 17.7614 12.2385 20 14.9999 20Z" stroke="white" stroke-linejoin="round"/>
  </g>
  <defs>
    <clipPath id="clip0_1_364">
      <rect width="30" height="30" fill="white"/>
    </clipPath>
  </defs>
</svg>