<svg width="16" height="22" viewBox="0 0 16 22" fill="none" xmlns="http://www.w3.org/2000/svg">
<path d="M8 0C3.58167 0 0 3.69359 0 8.25C0 10.2018 0.834 11.9182 1.757 13.4062L7.456 21.7099C7.581 21.8921 7.784 22 8 22C8.216 22 8.419 21.8921 8.544 21.7099L14.243 13.4062C15.125 12.1818 16 10.2018 16 8.25C16 3.69359 12.4183 0 8 0ZM8 13.0625C5.42267 13.0625 3.33333 10.9079 3.33333 8.25C3.33333 5.59213 5.42267 3.4375 8 3.4375C10.5773 3.4375 12.6667 5.59213 12.6667 8.25C12.6667 10.9079 10.5773 13.0625 8 13.0625Z" fill="white"/>
<path d="M8 4C5.791 4 4 5.791 4 8C4 10.209 5.791 12 8 12C10.209 12 12 10.209 12 8C12 5.791 10.209 4 8 4ZM8 11.3333C6.159 11.3333 4.66667 9.84067 4.66667 8C4.66667 6.15933 6.159 4.66667 8 4.66667C9.841 4.66667 11.3333 6.15933 11.3333 8C11.3333 9.84067 9.841 11.3333 8 11.3333Z" fill="white"/>
</svg>
