<svg xmlns="http://www.w3.org/2000/svg" width="800" height="800" viewBox="0 0 800 800" fill="none">
<path d="M139.333 667.222H660.667C664.013 667.27 667.332 666.6 670.398 665.259C673.464 663.917 676.208 661.935 678.444 659.444C680.254 657.423 681.616 655.041 682.439 652.456C683.263 649.871 683.53 647.14 683.222 644.444C677.35 598.771 660.562 555.184 634.278 517.373C607.994 479.562 572.988 448.639 532.222 427.222C514.88 444.624 494.273 458.432 471.584 467.854C448.894 477.275 424.568 482.125 400 482.125C375.432 482.125 351.106 477.275 328.416 467.854C305.726 458.432 285.12 444.624 267.778 427.222C227.012 448.639 192.006 479.562 165.722 517.373C139.438 555.184 122.65 598.771 116.778 644.444C116.436 647.193 116.686 649.983 117.51 652.627C118.334 655.272 119.713 657.71 121.556 659.778C123.822 662.208 126.579 664.128 129.644 665.411C132.709 666.695 136.012 667.312 139.333 667.222Z" fill="#010002"/>
<path d="M282.556 406.667C285.556 409.889 288.778 412.889 292 415.778C321.627 442.45 360.08 457.209 399.944 457.209C439.809 457.209 478.262 442.45 507.889 415.778C511.234 412.913 514.424 409.872 517.444 406.667C520.444 403.444 523.444 400.222 526.222 396.778C545.456 372.954 557.554 344.173 561.119 313.763C564.684 283.353 559.57 252.554 546.367 224.928C533.165 197.302 512.414 173.977 486.513 157.648C460.612 141.319 430.619 132.654 400 132.654C369.381 132.654 339.388 141.319 313.487 157.648C287.586 173.977 266.835 197.302 253.633 224.928C240.43 252.554 235.316 283.353 238.881 313.763C242.446 344.173 254.544 372.954 273.778 396.778C276.556 400 279.556 403.444 282.556 406.667Z" fill="#010002"/>
</svg>