<svg xmlns="http://www.w3.org/2000/svg" width="34" height="34" viewBox="0 0 34 34" fill="none">
  <path fill-rule="evenodd" clip-rule="evenodd" d="M19.7763 21.6514C19.475 22.5041 18.2775 23.2096 17.3225 23.4159C16.6688 23.5547 15.8162 23.6645 12.9437 22.4741C9.71749 21.1375 5.2375 16.3762 5.2375 13.2078C5.2375 11.5948 6.1675 9.71655 7.79375 9.71655C8.57625 9.71655 8.74875 9.73181 9.00625 10.3495C9.3075 11.0772 10.0425 12.8702 10.13 13.054C10.4913 13.8079 9.76249 14.2493 9.23374 14.9058C9.06499 15.1033 8.87376 15.317 9.08751 15.6846C9.3 16.0447 10.035 17.2426 11.115 18.2041C12.51 19.447 13.6412 19.8438 14.0462 20.0126C14.3475 20.1376 14.7075 20.1085 14.9275 19.8734C15.2063 19.5721 15.5525 19.0721 15.905 18.5795C16.1537 18.2269 16.47 18.1828 16.8013 18.3079C17.025 18.3854 19.8687 19.706 19.9887 19.9174C20.0775 20.0712 20.0775 20.7986 19.7763 21.6514ZM12.5025 4H12.4962C5.60499 4 0 9.60669 0 16.5C0 19.2333 0.881259 21.7692 2.38001 23.826L0.822506 28.4708L5.62626 26.9358C7.60251 28.2437 9.96125 29 12.5025 29C19.3937 29 25 23.3933 25 16.5C25 9.60669 19.3937 4 12.5025 4Z" fill="white"/>
</svg>